<svg width="145" height="42" viewBox="0 0 145 42" fill="none" xmlns="http://www.w3.org/2000/svg">
<path d="M143.48 36.8744C143.48 39.0957 141.644 40.8949 139.372 40.8949H4.91556C2.64478 40.8949 0.801575 39.0957 0.801575 36.8744V4.81214C0.801575 2.59193 2.64478 0.786377 4.91556 0.786377H139.371C141.644 0.786377 143.479 2.59193 143.479 4.81214L143.48 36.8744Z" fill="black"/>
<path d="M138.938 0.83488C141.412 0.83488 143.426 2.79782 143.426 5.21013V36.4712C143.426 38.8835 141.412 40.8465 138.938 40.8465H5.34377C2.86961 40.8465 0.85634 38.8835 0.85634 36.4712V5.21013C0.85634 2.79782 2.86961 0.83488 5.34377 0.83488H138.938ZM138.938 -5.06874e-05H5.34377C2.40603 -5.06874e-05 0 2.34583 0 5.21013V36.4712C0 39.3355 2.40603 41.6814 5.34377 41.6814H138.938C141.876 41.6814 144.282 39.3355 144.282 36.4712V5.21013C144.282 2.34583 141.876 -5.06874e-05 138.938 -5.06874e-05Z" fill="#A6A6A6"/>
<path d="M32.1995 20.6157C32.1685 17.2572 35.0199 15.6233 35.1503 15.5472C33.5354 13.2516 31.0324 12.938 30.1528 12.913C28.0506 12.6973 26.0114 14.1394 24.9405 14.1394C23.8482 14.1394 22.1991 12.9338 20.4218 12.9692C18.1347 13.0036 15.995 14.2947 14.8215 16.2996C12.3997 20.3875 14.2059 26.3948 16.5262 29.6991C17.6869 31.3174 19.0431 33.1243 20.8183 33.0607C22.555 32.9909 23.2038 31.9812 25.2996 31.9812C27.3762 31.9812 27.9854 33.0607 29.7959 33.0201C31.6598 32.9909 32.8333 31.3945 33.9533 29.7616C35.2946 27.9068 35.8333 26.0801 35.8546 25.9864C35.8108 25.9718 32.2348 24.6411 32.1995 20.6157Z" fill="white"/>
<path d="M28.7795 10.7393C29.7136 9.60033 30.3527 8.05083 30.1753 6.47839C28.8233 6.53675 27.1325 7.39018 26.1589 8.50411C25.2975 9.48571 24.528 11.0946 24.7268 12.6076C26.2455 12.7181 27.8048 11.8605 28.7795 10.7393Z" fill="white"/>
<path d="M57.3333 32.8282H54.9062L53.5767 28.7549H48.9554L47.6889 32.8282H45.3259L49.9044 18.9608H52.7323L57.3333 32.8282ZM53.1759 27.046L51.9735 23.4249C51.8463 23.055 51.608 22.1838 51.2564 20.8125H51.2136C51.0736 21.4023 50.8481 22.2734 50.5382 23.4249L49.3572 27.046H53.1759Z" fill="white"/>
<path d="M69.1078 27.7057C69.1078 29.4063 68.6365 30.7505 67.6938 31.7373C66.8495 32.6157 65.8011 33.0544 64.5496 33.0544C63.1987 33.0544 62.2282 32.5814 61.6372 31.6352H61.5945V36.9027H59.3159V26.1207C59.3159 25.0516 59.287 23.9543 59.2314 22.8289H61.2354L61.3625 24.4139H61.4053C62.1652 23.2197 63.3184 22.6237 64.8659 22.6237C66.0758 22.6237 67.0857 23.0894 67.8937 24.0221C68.7038 24.9557 69.1078 26.1833 69.1078 27.7057ZM66.7865 27.7869C66.7865 26.8137 66.562 26.0113 66.111 25.3798C65.6183 24.7213 64.9568 24.392 64.1274 24.392C63.5652 24.392 63.0544 24.5754 62.598 24.937C62.1406 25.3017 61.8413 25.7779 61.7013 26.3677C61.6308 26.6428 61.5955 26.8679 61.5955 27.045V28.7123C61.5955 29.4396 61.8242 30.0534 62.2817 30.5546C62.7391 31.0558 63.3333 31.3059 64.0644 31.3059C64.9226 31.3059 65.5905 30.9829 66.0683 30.3389C66.5471 29.6939 66.7865 28.8436 66.7865 27.7869Z" fill="white"/>
<path d="M80.9036 27.7057C80.9036 29.4063 80.4323 30.7505 79.4886 31.7373C78.6453 32.6157 77.5969 33.0544 76.3454 33.0544C74.9945 33.0544 74.024 32.5814 73.4341 31.6352H73.3913V36.9027H71.1128V26.1207C71.1128 25.0516 71.0839 23.9543 71.0283 22.8289H73.0322L73.1594 24.4139H73.2022C73.961 23.2197 75.1142 22.6237 76.6628 22.6237C77.8716 22.6237 78.8815 23.0894 79.6917 24.0221C80.4986 24.9557 80.9036 26.1833 80.9036 27.7057ZM78.5823 27.7869C78.5823 26.8137 78.3568 26.0113 77.9058 25.3798C77.4131 24.7213 76.7536 24.392 75.9232 24.392C75.36 24.392 74.8502 24.5754 74.3928 24.937C73.9353 25.3017 73.6371 25.7779 73.4971 26.3677C73.4277 26.6428 73.3913 26.8679 73.3913 27.045V28.7123C73.3913 29.4396 73.62 30.0534 74.0753 30.5546C74.5328 31.0548 75.127 31.3059 75.8602 31.3059C76.7184 31.3059 77.3863 30.9829 77.8641 30.3389C78.3429 29.6939 78.5823 28.8436 78.5823 27.7869Z" fill="white"/>
<path d="M94.0921 28.9394C94.0921 30.119 93.6721 31.0787 92.8289 31.8196C91.9023 32.6293 90.6123 33.0336 88.9546 33.0336C87.4242 33.0336 86.1972 32.746 85.2685 32.1697L85.7965 30.318C86.7968 30.9078 87.8944 31.2038 89.0904 31.2038C89.9486 31.2038 90.6165 31.0141 91.0964 30.6369C91.5742 30.2597 91.8125 29.7533 91.8125 29.1218C91.8125 28.5591 91.6158 28.085 91.2215 27.7004C90.8292 27.3159 90.1741 26.9585 89.2592 26.6282C86.769 25.7227 85.525 24.3962 85.525 22.6518C85.525 21.5118 85.9611 20.5771 86.8342 19.8497C87.7042 19.1214 88.8649 18.7577 90.3162 18.7577C91.6105 18.7577 92.6857 18.9776 93.5439 19.4163L92.9742 21.2273C92.1726 20.8022 91.2663 20.5896 90.2521 20.5896C89.4505 20.5896 88.8242 20.7824 88.3754 21.1658C87.996 21.5087 87.8057 21.9265 87.8057 22.4215C87.8057 22.9696 88.0227 23.4229 88.4587 23.7793C88.8381 24.1085 89.5275 24.4649 90.5278 24.8494C91.7516 25.3298 92.6504 25.8915 93.2286 26.5355C93.8046 27.1773 94.0921 27.9808 94.0921 28.9394Z" fill="white"/>
<path d="M101.626 24.4962H99.1142V29.351C99.1142 30.5858 99.5566 31.2027 100.444 31.2027C100.851 31.2027 101.189 31.1683 101.456 31.0996L101.519 32.7866C101.07 32.9502 100.479 33.0325 99.7469 33.0325C98.847 33.0325 98.1437 32.7647 97.6361 32.2302C97.1306 31.6946 96.8762 30.7963 96.8762 29.5344V24.4941H95.3799V22.8268H96.8762V20.996L99.1142 20.3374V22.8268H101.626V24.4962Z" fill="white"/>
<path d="M112.958 27.7462C112.958 29.2832 112.507 30.5452 111.607 31.532C110.663 32.5479 109.411 33.0544 107.849 33.0544C106.344 33.0544 105.146 32.5677 104.253 31.5945C103.359 30.6212 102.913 29.3927 102.913 27.9119C102.913 26.3624 103.372 25.0932 104.294 24.1064C105.215 23.1186 106.457 22.6246 108.018 22.6246C109.523 22.6246 110.734 23.1113 111.647 24.0856C112.522 25.0307 112.958 26.2509 112.958 27.7462ZM110.594 27.8181C110.594 26.8959 110.392 26.105 109.982 25.4454C109.505 24.6472 108.822 24.2492 107.937 24.2492C107.021 24.2492 106.325 24.6483 105.847 25.4454C105.438 26.1061 105.236 26.9095 105.236 27.8598C105.236 28.782 105.438 29.5729 105.847 30.2315C106.34 31.0297 107.028 31.4278 107.916 31.4278C108.786 31.4278 109.469 31.0214 109.962 30.2107C110.382 29.5385 110.594 28.7393 110.594 27.8181Z" fill="white"/>
<path d="M120.364 24.7828C120.139 24.7421 119.898 24.7213 119.646 24.7213C118.844 24.7213 118.225 25.0162 117.788 25.607C117.409 26.128 117.219 26.7866 117.219 27.5817V32.8283H114.941L114.963 25.978C114.963 24.8255 114.934 23.7761 114.877 22.83H116.862L116.945 24.7432H117.008C117.249 24.0856 117.628 23.5563 118.148 23.1593C118.655 22.8018 119.204 22.6237 119.795 22.6237C120.005 22.6237 120.195 22.6382 120.364 22.6643V24.7828Z" fill="white"/>
<path d="M130.555 27.3555C130.555 27.7536 130.528 28.0891 130.471 28.3631H123.636C123.662 29.351 123.993 30.1065 124.628 30.6275C125.204 31.0933 125.948 31.3267 126.863 31.3267C127.875 31.3267 128.799 31.1694 129.629 30.8536L129.986 32.3958C129.016 32.8085 127.87 33.0138 126.548 33.0138C124.958 33.0138 123.709 32.5573 122.801 31.6456C121.895 30.7338 121.44 29.5094 121.44 27.9734C121.44 26.4656 121.863 25.2099 122.708 24.2086C123.593 23.1394 124.789 22.6049 126.294 22.6049C127.772 22.6049 128.891 23.1394 129.651 24.2086C130.252 25.0578 130.555 26.1082 130.555 27.3555ZM128.382 26.7793C128.397 26.1207 128.248 25.5517 127.94 25.0714C127.545 24.4534 126.939 24.145 126.124 24.145C125.379 24.145 124.773 24.4461 124.31 25.0505C123.931 25.5309 123.705 26.1071 123.636 26.7782H128.382V26.7793Z" fill="white"/>
<path d="M52.4225 10.4297C52.4225 11.6562 52.0452 12.5795 51.2917 13.1995C50.5938 13.7716 49.602 14.0581 48.3174 14.0581C47.6804 14.0581 47.1353 14.031 46.679 13.9768V7.27551C47.2743 7.18172 47.9155 7.13379 48.6081 7.13379C49.8318 7.13379 50.7541 7.39326 51.3761 7.91219C52.073 8.49886 52.4225 9.3377 52.4225 10.4297ZM51.2415 10.46C51.2415 9.6649 51.0256 9.0553 50.5938 8.63015C50.162 8.20604 49.5315 7.99347 48.701 7.99347C48.3484 7.99347 48.048 8.01639 47.799 8.06433V13.1588C47.9369 13.1797 48.1891 13.1891 48.5557 13.1891C49.4128 13.1891 50.0744 12.9567 50.5404 12.4919C51.0064 12.0272 51.2415 11.3499 51.2415 10.46Z" fill="white"/>
<path d="M58.6843 11.5009C58.6843 12.2564 58.4631 12.8754 58.0206 13.361C57.5568 13.8601 56.9423 14.1092 56.1749 14.1092C55.4353 14.1092 54.8464 13.8705 54.4072 13.3912C53.969 12.9129 53.7499 12.3096 53.7499 11.5822C53.7499 10.8215 53.9754 10.1974 54.4285 9.71281C54.8817 9.22827 55.4909 8.98547 56.2582 8.98547C56.9978 8.98547 57.5921 9.2241 58.042 9.70239C58.4695 10.1671 58.6843 10.7674 58.6843 11.5009ZM57.5226 11.5364C57.5226 11.0831 57.4221 10.6944 57.2223 10.3703C56.9871 9.97853 56.6526 9.78263 56.2176 9.78263C55.7677 9.78263 55.4257 9.97853 55.1906 10.3703C54.9896 10.6944 54.8902 11.0893 54.8902 11.5562C54.8902 12.0095 54.9907 12.3981 55.1906 12.7222C55.4332 13.114 55.7709 13.3099 56.2069 13.3099C56.6345 13.3099 56.97 13.1109 57.2116 12.7118C57.4189 12.3815 57.5226 11.9897 57.5226 11.5364Z" fill="white"/>
<path d="M67.0804 9.08557L65.504 13.9977H64.478L63.825 11.8647C63.6593 11.3322 63.5247 10.8028 63.4199 10.2777H63.3996C63.3024 10.8174 63.1677 11.3457 62.9946 11.8647L62.3009 13.9977H61.2632L59.7808 9.08557H60.9319L61.5015 11.4208C61.6394 11.9731 61.7527 12.4993 61.8435 12.9974H61.8638C61.9472 12.5868 62.0851 12.0637 62.2796 11.4312L62.9946 9.08661H63.9073L64.5924 11.3812C64.758 11.9408 64.8927 12.4795 64.9963 12.9984H65.0273C65.1032 12.493 65.2176 11.9543 65.3693 11.3812L65.9807 9.08661H67.0804V9.08557Z" fill="white"/>
<path d="M72.887 13.9977H71.7669V11.1842C71.7669 10.3173 71.4292 9.88378 70.7516 9.88378C70.4192 9.88378 70.151 10.0026 69.9426 10.2412C69.7363 10.4798 69.6316 10.7612 69.6316 11.0832V13.9967H68.5115V10.4892C68.5115 10.0578 68.4976 9.58993 68.4709 9.0835H69.4552L69.5076 9.85148H69.5386C69.669 9.61285 69.8635 9.41591 70.1189 9.25856C70.4224 9.07516 70.7623 8.98242 71.1342 8.98242C71.6045 8.98242 71.9956 9.13039 72.3066 9.42737C72.6935 9.79104 72.887 10.3339 72.887 11.055V13.9977Z" fill="white"/>
<path d="M75.9757 13.9977H74.8567V6.83167H75.9757V13.9977Z" fill="white"/>
<path d="M82.5699 11.5009C82.5699 12.2564 82.3486 12.8754 81.9062 13.361C81.4423 13.8601 80.8267 14.1092 80.0604 14.1092C79.3198 14.1092 78.7309 13.8705 78.2927 13.3912C77.8545 12.9129 77.6354 12.3096 77.6354 11.5822C77.6354 10.8215 77.8609 10.1974 78.3141 9.71281C78.7673 9.22827 79.3764 8.98547 80.1427 8.98547C80.8834 8.98547 81.4765 9.2241 81.9276 9.70239C82.3551 10.1671 82.5699 10.7674 82.5699 11.5009ZM81.4071 11.5364C81.4071 11.0831 81.3066 10.6944 81.1068 10.3703C80.8727 9.97853 80.5371 9.78263 80.1032 9.78263C79.6522 9.78263 79.3102 9.97853 79.0761 10.3703C78.8752 10.6944 78.7758 11.0893 78.7758 11.5562C78.7758 12.0095 78.8763 12.3981 79.0761 12.7222C79.3187 13.114 79.6565 13.3099 80.0925 13.3099C80.52 13.3099 80.8545 13.1109 81.0961 12.7118C81.3045 12.3815 81.4071 11.9897 81.4071 11.5364Z" fill="white"/>
<path d="M87.9906 13.9977H86.9849L86.9016 13.4318H86.8706C86.5264 13.883 86.0359 14.1092 85.3989 14.1092C84.9233 14.1092 84.5386 13.9602 84.2489 13.6642C83.986 13.3954 83.8546 13.0609 83.8546 12.6639C83.8546 12.0636 84.1111 11.6062 84.6273 11.2894C85.1424 10.9726 85.867 10.8174 86.8 10.8247V10.733C86.8 10.0859 86.4516 9.76283 85.7537 9.76283C85.2568 9.76283 84.8186 9.88475 84.4402 10.1265L84.2126 9.40958C84.6807 9.12719 85.2589 8.98547 85.9408 8.98547C87.2575 8.98547 87.918 9.6628 87.918 11.0174V12.8264C87.918 13.3172 87.9425 13.708 87.9906 13.9977ZM86.8278 12.3096V11.552C85.5923 11.5312 84.9746 11.8615 84.9746 12.5419C84.9746 12.7983 85.0451 12.99 85.1894 13.1182C85.3337 13.2464 85.5175 13.3099 85.7366 13.3099C85.9824 13.3099 86.2122 13.2339 86.4217 13.0828C86.6322 12.9306 86.7616 12.7378 86.8097 12.5013C86.8214 12.4482 86.8278 12.3836 86.8278 12.3096Z" fill="white"/>
<path d="M94.355 13.9977H93.3611L93.3087 13.2089H93.2777C92.9603 13.8091 92.4195 14.1092 91.6596 14.1092C91.0526 14.1092 90.5471 13.8769 90.1463 13.4121C89.7455 12.9474 89.5457 12.344 89.5457 11.6031C89.5457 10.8081 89.7626 10.1641 90.1987 9.67226C90.6208 9.21376 91.1381 8.98451 91.7537 8.98451C92.4302 8.98451 92.9037 9.20647 93.173 9.65141H93.1944V6.83167H94.3155V12.6744C94.3155 13.1527 94.3283 13.5934 94.355 13.9977ZM93.1944 11.9262V11.1071C93.1944 10.9654 93.1837 10.8508 93.1634 10.7633C93.1003 10.5007 92.9646 10.2798 92.7583 10.1016C92.5499 9.92339 92.2988 9.83377 92.0091 9.83377C91.5912 9.83377 91.2642 9.99529 91.0237 10.3194C90.7854 10.6434 90.6646 11.0571 90.6646 11.5625C90.6646 12.0481 90.779 12.442 91.0088 12.7452C91.2514 13.0683 91.5784 13.2298 91.9878 13.2298C92.3554 13.2298 92.6493 13.0953 92.8727 12.8255C93.0886 12.5764 93.1944 12.2763 93.1944 11.9262Z" fill="white"/>
<path d="M103.934 11.5009C103.934 12.2564 103.713 12.8754 103.271 13.361C102.807 13.8601 102.193 14.1092 101.425 14.1092C100.686 14.1092 100.097 13.8705 99.6572 13.3912C99.219 12.9129 98.9999 12.3096 98.9999 11.5822C98.9999 10.8215 99.2254 10.1974 99.6785 9.71281C100.132 9.22827 100.741 8.98547 101.509 8.98547C102.248 8.98547 102.843 9.2241 103.292 9.70239C103.72 10.1671 103.934 10.7674 103.934 11.5009ZM102.774 11.5364C102.774 11.0831 102.673 10.6944 102.473 10.3703C102.237 9.97853 101.904 9.78263 101.468 9.78263C101.019 9.78263 100.677 9.97853 100.441 10.3703C100.24 10.6944 100.14 11.0893 100.14 11.5562C100.14 12.0095 100.241 12.3981 100.441 12.7222C100.683 13.114 101.021 13.3099 101.457 13.3099C101.884 13.3099 102.221 13.1109 102.463 12.7118C102.669 12.3815 102.774 11.9897 102.774 11.5364Z" fill="white"/>
<path d="M109.957 13.9977H108.838V11.1842C108.838 10.3173 108.5 9.88378 107.821 9.88378C107.489 9.88378 107.221 10.0026 107.013 10.2412C106.806 10.4798 106.702 10.7612 106.702 11.0832V13.9967H105.581V10.4892C105.581 10.0578 105.568 9.58993 105.542 9.0835H106.525L106.577 9.85148H106.608C106.74 9.61285 106.934 9.41591 107.189 9.25856C107.493 9.07516 107.832 8.98242 108.205 8.98242C108.674 8.98242 109.065 9.13039 109.376 9.42737C109.764 9.79104 109.957 10.3339 109.957 11.055V13.9977Z" fill="white"/>
<path d="M117.495 9.90353H116.261V12.2898C116.261 12.8963 116.48 13.1995 116.914 13.1995C117.115 13.1995 117.282 13.1828 117.413 13.1484L117.442 13.9769C117.221 14.0581 116.93 14.0988 116.572 14.0988C116.13 14.0988 115.786 13.9675 115.537 13.7049C115.287 13.4423 115.163 13.0005 115.163 12.3805V9.90353H114.426V9.08553H115.163V8.18521L116.26 7.86218V9.08449H117.494V9.90353H117.495Z" fill="white"/>
<path d="M123.424 13.9977H122.303V11.2051C122.303 10.3246 121.965 9.88379 121.289 9.88379C120.769 9.88379 120.415 10.1391 120.22 10.6497C120.187 10.757 120.168 10.8883 120.168 11.0425V13.9967H119.049V6.83167H120.168V9.79209H120.189C120.542 9.25336 121.047 8.98451 121.702 8.98451C122.166 8.98451 122.55 9.13248 122.854 9.42946C123.234 9.79938 123.424 10.3496 123.424 11.0769V13.9977Z" fill="white"/>
<path d="M129.541 11.3092C129.541 11.5051 129.526 11.6697 129.499 11.8042H126.14C126.155 12.2897 126.315 12.6597 126.626 12.916C126.91 13.1453 127.277 13.2599 127.726 13.2599C128.223 13.2599 128.676 13.1828 129.084 13.0275L129.26 13.7861C128.782 13.9883 128.22 14.0893 127.569 14.0893C126.789 14.0893 126.174 13.8653 125.729 13.4172C125.283 12.9692 125.061 12.3679 125.061 11.6135C125.061 10.8726 125.268 10.2557 125.683 9.76385C126.117 9.23867 126.704 8.97607 127.445 8.97607C128.169 8.97607 128.72 9.23867 129.092 9.76385C129.392 10.1807 129.541 10.6965 129.541 11.3092ZM128.472 11.0268C128.48 10.7027 128.407 10.4235 128.255 10.188C128.06 9.88473 127.764 9.73259 127.364 9.73259C126.998 9.73259 126.7 9.88056 126.472 10.1775C126.286 10.4141 126.176 10.6965 126.14 11.0268H128.472Z" fill="white"/>
</svg>
