<svg width="145" height="42" viewBox="0 0 145 42" fill="none" xmlns="http://www.w3.org/2000/svg">
<path d="M139.664 41.6814H6.25281C3.31911 41.6814 0.916382 39.3355 0.916382 36.4712V5.21013C0.916382 2.34583 3.31911 -5.06874e-05 6.25281 -5.06874e-05H139.664C142.597 -5.06874e-05 145 2.34583 145 5.21013V36.4712C145 39.3355 142.597 41.6814 139.664 41.6814Z" fill="black"/>
<path d="M139.664 0.83488C142.134 0.83488 144.145 2.79782 144.145 5.21013V36.4712C144.145 38.8835 142.134 40.8465 139.664 40.8465H6.25281C3.78204 40.8465 1.77154 38.8835 1.77154 36.4712V5.21013C1.77154 2.79782 3.78204 0.83488 6.25281 0.83488H139.664ZM139.664 -5.06874e-05H6.25281C3.31911 -5.06874e-05 0.916382 2.34583 0.916382 5.21013V36.4712C0.916382 39.3355 3.31911 41.6814 6.25281 41.6814H139.664C142.597 41.6814 145 39.3355 145 36.4712V5.21013C145 2.34583 142.597 -5.06874e-05 139.664 -5.06874e-05Z" fill="#A6A6A6"/>
<path d="M51.5244 10.6742C51.5244 11.5443 51.2576 12.2412 50.732 12.7609C50.1276 13.377 49.3405 13.687 48.3759 13.687C47.4541 13.687 46.6669 13.3718 46.0212 12.7505C45.3742 12.12 45.0513 11.3463 45.0513 10.4202C45.0513 9.49412 45.3742 8.7204 46.0212 8.09518C46.6669 7.46866 47.4541 7.15344 48.3759 7.15344C48.8349 7.15344 49.2724 7.24592 49.69 7.41786C50.1063 7.5911 50.4451 7.82556 50.6906 8.11472L50.1329 8.6644C49.7047 8.17073 49.1217 7.92716 48.3759 7.92716C47.7035 7.92716 47.1205 8.1564 46.6256 8.61881C46.136 9.08251 45.8905 9.68299 45.8905 10.4202C45.8905 11.1575 46.136 11.7631 46.6256 12.2269C47.1205 12.684 47.7035 12.9185 48.3759 12.9185C49.0897 12.9185 49.69 12.684 50.1636 12.2216C50.4758 11.9155 50.6533 11.4935 50.6999 10.9543H48.3759V10.2014H51.4764C51.5137 10.3642 51.5244 10.5218 51.5244 10.6742Z" fill="white" stroke="white" stroke-width="0.16" stroke-miterlimit="10"/>
<path d="M56.4433 8.06407H53.5309V10.0439H56.1564V10.7968H53.5309V12.7767H56.4433V13.5439H52.7064V7.29688H56.4433V8.06407Z" fill="white" stroke="white" stroke-width="0.16" stroke-miterlimit="10"/>
<path d="M59.9146 13.5439H59.0901V8.06407H57.3038V7.29688H61.7023V8.06407H59.9146V13.5439Z" fill="white" stroke="white" stroke-width="0.16" stroke-miterlimit="10"/>
<path d="M64.8855 13.5439V7.29688H65.7086V13.5439H64.8855Z" fill="white" stroke="white" stroke-width="0.16" stroke-miterlimit="10"/>
<path d="M69.3574 13.5439H68.5396V8.06407H66.7466V7.29688H71.1505V8.06407H69.3574V13.5439Z" fill="white" stroke="white" stroke-width="0.16" stroke-miterlimit="10"/>
<path d="M79.478 12.7401C78.847 13.3718 78.0652 13.687 77.1327 13.687C76.1948 13.687 75.413 13.3718 74.782 12.7401C74.1523 12.1096 73.8387 11.3359 73.8387 10.4202C73.8387 9.50454 74.1523 8.73082 74.782 8.10039C75.413 7.46866 76.1948 7.15344 77.1327 7.15344C78.0599 7.15344 78.8417 7.46866 79.4727 8.1056C80.1077 8.74124 80.4212 9.50975 80.4212 10.4202C80.4212 11.3359 80.1077 12.1096 79.478 12.7401ZM75.3916 12.2164C75.8666 12.684 76.4443 12.9185 77.1327 12.9185C77.8157 12.9185 78.3987 12.684 78.8683 12.2164C79.3419 11.7488 79.5821 11.1483 79.5821 10.4202C79.5821 9.6921 79.3419 9.09163 78.8683 8.62402C78.3987 8.1564 77.8157 7.92194 77.1327 7.92194C76.4443 7.92194 75.8666 8.1564 75.3916 8.62402C74.918 9.09163 74.6779 9.6921 74.6779 10.4202C74.6779 11.1483 74.918 11.7488 75.3916 12.2164Z" fill="white" stroke="white" stroke-width="0.16" stroke-miterlimit="10"/>
<path d="M81.5779 13.5439V7.29688H82.5785L85.6896 12.1554H85.7256L85.6896 10.9544V7.29688H86.5128V13.5439H85.6536L82.3957 8.44572H82.3597L82.3957 9.65188V13.5439H81.5779Z" fill="white" stroke="white" stroke-width="0.16" stroke-miterlimit="10"/>
<path d="M73.6359 22.6669C71.1291 22.6669 69.0812 24.5296 69.0812 27.0995C69.0812 29.6486 71.1291 31.5307 73.6359 31.5307C76.148 31.5307 78.1959 29.6486 78.1959 27.0995C78.1959 24.5296 76.148 22.6669 73.6359 22.6669ZM73.6359 29.7853C72.2604 29.7853 71.0771 28.6769 71.0771 27.0995C71.0771 25.5013 72.2604 24.4123 73.6359 24.4123C75.0113 24.4123 76.2 25.5013 76.2 27.0995C76.2 28.6769 75.0113 29.7853 73.6359 29.7853ZM63.6981 22.6669C61.186 22.6669 59.1435 24.5296 59.1435 27.0995C59.1435 29.6486 61.186 31.5307 63.6981 31.5307C66.2089 31.5307 68.2528 29.6486 68.2528 27.0995C68.2528 24.5296 66.2089 22.6669 63.6981 22.6669ZM63.6981 29.7853C62.3213 29.7853 61.134 28.6769 61.134 27.0995C61.134 25.5013 62.3213 24.4123 63.6981 24.4123C65.0736 24.4123 66.2569 25.5013 66.2569 27.0995C66.2569 28.6769 65.0736 29.7853 63.6981 29.7853ZM51.8726 24.0255V25.909H56.4793C56.3445 26.9614 55.9843 27.7351 55.432 28.2744C54.7596 28.9256 53.7123 29.6486 51.8726 29.6486C49.0376 29.6486 46.8177 27.4147 46.8177 24.6468C46.8177 21.8789 49.0376 19.645 51.8726 19.645C53.4055 19.645 54.5208 20.2299 55.3439 20.9879L56.7034 19.6606C55.5521 18.5873 54.0205 17.7628 51.8726 17.7628C47.985 17.7628 44.7178 20.8512 44.7178 24.6468C44.7178 28.4424 47.985 31.5307 51.8726 31.5307C53.9738 31.5307 55.5521 30.8586 56.7928 29.5978C58.0642 28.3564 58.4604 26.611 58.4604 25.2017C58.4604 24.764 58.4231 24.3615 58.3563 24.0255H51.8726ZM100.229 25.4856C99.8538 24.4944 98.6971 22.6669 96.341 22.6669C94.0064 22.6669 92.0626 24.4631 92.0626 27.0995C92.0626 29.5821 93.9863 31.5307 96.5652 31.5307C98.6504 31.5307 99.8537 30.2894 100.349 29.5665L98.8011 28.5596C98.2848 29.2969 97.5818 29.7853 96.5652 29.7853C95.5553 29.7853 94.8308 29.3333 94.3666 28.4424L100.438 25.9897L100.229 25.4856ZM94.0384 26.9614C93.9864 25.2525 95.3978 24.3772 96.4091 24.3772C97.2015 24.3772 97.8739 24.764 98.0981 25.3176L94.0384 26.9614ZM89.1035 31.2611H91.0993V18.2357H89.1035V31.2611ZM85.835 23.6542H85.7682C85.32 23.1358 84.4648 22.6669 83.3815 22.6669C81.1082 22.6669 79.0297 24.6155 79.0297 27.1138C79.0297 29.5978 81.1082 31.5307 83.3815 31.5307C84.4648 31.5307 85.32 31.0579 85.7682 30.5239H85.835V31.1595C85.835 32.8541 84.9077 33.7646 83.4122 33.7646C82.1928 33.7646 81.4364 32.9049 81.1242 32.182L79.3885 32.8893C79.8888 34.0642 81.2136 35.51 83.4122 35.51C85.7522 35.51 87.7267 34.1658 87.7267 30.8951V22.9365H85.835V23.6542ZM83.5523 29.7853C82.1768 29.7853 81.0255 28.6612 81.0255 27.1138C81.0255 25.5521 82.1768 24.4123 83.5523 24.4123C84.9078 24.4123 85.9764 25.5521 85.9764 27.1138C85.9764 28.6612 84.9078 29.7853 83.5523 29.7853ZM109.573 18.2357H104.799V31.2611H106.79V26.3258H109.573C111.783 26.3258 113.951 24.764 113.951 22.2801C113.951 19.7974 111.778 18.2357 109.573 18.2357ZM109.625 24.5139H106.79V20.0475H109.625C111.111 20.0475 111.959 21.2524 111.959 22.2801C111.959 23.2882 111.111 24.5139 109.625 24.5139ZM121.929 22.6422C120.491 22.6422 118.996 23.2622 118.38 24.6364L120.147 25.3593C120.527 24.6364 121.226 24.4019 121.965 24.4019C122.998 24.4019 124.045 25.0076 124.061 26.077V26.2137C123.701 26.0105 122.93 25.7097 121.981 25.7097C120.079 25.7097 118.14 26.7322 118.14 28.6404C118.14 30.3858 119.699 31.5099 121.45 31.5099C122.79 31.5099 123.529 30.9198 123.993 30.2334H124.061V31.2403H125.984V26.2437C125.984 23.9343 124.217 22.6422 121.929 22.6422ZM121.689 29.7801C121.038 29.7801 120.131 29.4649 120.131 28.6769C120.131 27.6687 121.262 27.2818 122.241 27.2818C123.118 27.2818 123.529 27.4707 124.061 27.7195C123.905 28.9256 122.842 29.7801 121.689 29.7801ZM132.988 22.9274L130.7 28.574H130.632L128.266 22.9274H126.12L129.674 30.8182L127.646 35.2091H129.726L135.202 22.9274H132.988ZM115.045 31.2611H117.041V18.2357H115.045V31.2611Z" fill="white"/>
<path d="M12.0535 7.85555C11.74 8.17597 11.5586 8.67485 11.5586 9.32091V32.3655C11.5586 33.0116 11.74 33.5105 12.0535 33.8309L12.1309 33.9012L25.3573 20.993V20.6882L12.1309 7.78L12.0535 7.85555Z" fill="url(#paint0_linear_222_1964)"/>
<path d="M29.7611 25.298L25.3572 20.9931V20.6883L29.7664 16.3834L29.8651 16.4394L35.0868 19.3401C36.577 20.1633 36.577 21.518 35.0868 22.3464L29.8651 25.242L29.7611 25.298Z" fill="url(#paint1_linear_222_1964)"/>
<path d="M29.8652 25.2419L25.3572 20.8406L12.0535 33.8309C12.5485 34.3389 13.3556 34.4001 14.2735 33.8921L29.8652 25.2419Z" fill="url(#paint2_linear_222_1964)"/>
<path d="M29.8652 16.4394L14.2735 7.7892C13.3556 7.28642 12.5485 7.34763 12.0535 7.85563L25.3572 20.8407L29.8652 16.4394Z" fill="url(#paint3_linear_222_1964)"/>
<defs>
<linearGradient id="paint0_linear_222_1964" x1="24.1829" y1="32.6055" x2="6.70007" y2="14.699" gradientUnits="userSpaceOnUse">
<stop stop-color="#00A0FF"/>
<stop offset="0.0066" stop-color="#00A1FF"/>
<stop offset="0.2601" stop-color="#00BEFF"/>
<stop offset="0.5122" stop-color="#00D2FF"/>
<stop offset="0.7604" stop-color="#00DFFF"/>
<stop offset="1" stop-color="#00E3FF"/>
</linearGradient>
<linearGradient id="paint1_linear_222_1964" x1="37.0273" y1="20.8392" x2="11.2023" y2="20.8392" gradientUnits="userSpaceOnUse">
<stop stop-color="#FFE000"/>
<stop offset="0.4087" stop-color="#FFBD00"/>
<stop offset="0.7754" stop-color="#FFA500"/>
<stop offset="1" stop-color="#FF9C00"/>
</linearGradient>
<linearGradient id="paint2_linear_222_1964" x1="27.4139" y1="18.448" x2="3.70573" y2="-5.83464" gradientUnits="userSpaceOnUse">
<stop stop-color="#FF3A44"/>
<stop offset="1" stop-color="#C31162"/>
</linearGradient>
<linearGradient id="paint3_linear_222_1964" x1="8.70471" y1="41.4978" x2="19.2915" y2="30.6546" gradientUnits="userSpaceOnUse">
<stop stop-color="#32A071"/>
<stop offset="0.0685" stop-color="#2DA771"/>
<stop offset="0.4762" stop-color="#15CF74"/>
<stop offset="0.8009" stop-color="#06E775"/>
<stop offset="1" stop-color="#00F076"/>
</linearGradient>
</defs>
</svg>
