<svg width="528" height="542" viewBox="0 0 528 542" fill="none" xmlns="http://www.w3.org/2000/svg">
<g opacity="0.54">
<path d="M173.231 1.05945C173.263 1.05945 173.296 1.035 173.296 0.994236C173.296 0.961621 173.263 0.928943 173.231 0.928943C173.19 0.928943 173.157 0.961621 173.157 0.994236C173.157 1.035 173.19 1.05945 173.231 1.05945Z" fill="#E28539"/>
<path d="M197.773 1.13263C197.847 1.13263 197.904 1.06746 197.904 0.994082C197.904 0.9207 197.847 0.855456 197.773 0.855456C197.692 0.855456 197.635 0.9207 197.635 0.994082C197.635 1.06746 197.692 1.13263 197.773 1.13263Z" fill="#E28539"/>
<path d="M222.315 1.19812C222.421 1.19812 222.519 1.10843 222.519 0.994281C222.519 0.880131 222.421 0.790442 222.315 0.790442C222.201 0.790442 222.111 0.880131 222.111 0.994281C222.111 1.10843 222.201 1.19812 222.315 1.19812Z" fill="#E28539"/>
<path d="M246.858 1.26328C247.004 1.26328 247.127 1.14914 247.127 0.994223C247.127 0.847459 247.004 0.725092 246.858 0.725092C246.703 0.725092 246.58 0.847459 246.58 0.994223C246.58 1.14914 246.703 1.26328 246.858 1.26328Z" fill="#E28539"/>
<path d="M271.4 1.26328C271.546 1.26328 271.669 1.14914 271.669 0.994223C271.669 0.847459 271.546 0.725092 271.4 0.725092C271.245 0.725092 271.122 0.847459 271.122 0.994223C271.122 1.14914 271.245 1.26328 271.4 1.26328Z" fill="#E28539"/>
<path d="M295.942 1.13263C296.015 1.13263 296.072 1.06746 296.072 0.994082C296.072 0.9207 296.015 0.855456 295.942 0.855456C295.869 0.855456 295.803 0.9207 295.803 0.994082C295.803 1.06746 295.869 1.13263 295.942 1.13263Z" fill="#E28539"/>
<path d="M320.484 1.05945C320.517 1.05945 320.549 1.035 320.549 0.994236C320.549 0.961621 320.517 0.928943 320.484 0.928943C320.444 0.928943 320.411 0.961621 320.411 0.994236C320.411 1.035 320.444 1.05945 320.484 1.05945Z" fill="#E28539"/>
<path d="M124.138 25.6751C124.22 25.6751 124.277 25.6099 124.277 25.5366C124.277 25.4632 124.22 25.3979 124.138 25.3979C124.065 25.3979 124.008 25.4632 124.008 25.5366C124.008 25.6099 124.065 25.6751 124.138 25.6751Z" fill="#E28539"/>
<path d="M148.68 26.0172C148.949 26.0172 149.161 25.7971 149.161 25.5362C149.161 25.2753 148.949 25.0632 148.68 25.0632C148.419 25.0632 148.207 25.2753 148.207 25.5362C148.207 25.7971 148.419 26.0172 148.68 26.0172Z" fill="#E28539"/>
<path d="M173.231 26.4253C173.712 26.4253 174.111 26.0258 174.111 25.5366C174.111 25.0474 173.712 24.656 173.231 24.656C172.741 24.656 172.342 25.0474 172.342 25.5366C172.342 26.0258 172.741 26.4253 173.231 26.4253Z" fill="#E28539"/>
<path d="M197.773 26.6942C198.409 26.6942 198.923 26.1724 198.923 25.5364C198.923 24.9004 198.409 24.3786 197.773 24.3786C197.129 24.3786 196.615 24.9004 196.615 25.5364C196.615 26.1724 197.129 26.6942 197.773 26.6942Z" fill="#E28539"/>
<path d="M222.315 26.8981C223.065 26.8981 223.677 26.2867 223.677 25.5366C223.677 24.7864 223.065 24.1749 222.315 24.1749C221.557 24.1749 220.953 24.7864 220.953 25.5366C220.953 26.2867 221.557 26.8981 222.315 26.8981Z" fill="#E28539"/>
<path d="M246.858 26.9633C247.64 26.9633 248.285 26.3273 248.285 25.5364C248.285 24.7455 247.64 24.1095 246.858 24.1095C246.067 24.1095 245.422 24.7455 245.422 25.5364C245.422 26.3273 246.067 26.9633 246.858 26.9633Z" fill="#E28539"/>
<path d="M271.4 26.8981C272.15 26.8981 272.761 26.2867 272.761 25.5366C272.761 24.7864 272.15 24.1749 271.4 24.1749C270.649 24.1749 270.038 24.7864 270.038 25.5366C270.038 26.2867 270.649 26.8981 271.4 26.8981Z" fill="#E28539"/>
<path d="M295.942 26.7596C296.619 26.7596 297.165 26.2134 297.165 25.5366C297.165 24.8599 296.619 24.3136 295.942 24.3136C295.265 24.3136 294.719 24.8599 294.719 25.5366C294.719 26.2134 295.265 26.7596 295.942 26.7596Z" fill="#E28539"/>
<path d="M320.484 26.4253C320.974 26.4253 321.365 26.0258 321.365 25.5366C321.365 25.0474 320.974 24.656 320.484 24.656C319.995 24.656 319.596 25.0474 319.596 25.5366C319.596 26.0258 319.995 26.4253 320.484 26.4253Z" fill="#E28539"/>
<path d="M345.026 26.0826C345.328 26.0826 345.573 25.8381 345.573 25.5364C345.573 25.2347 345.328 24.9901 345.026 24.9901C344.725 24.9901 344.48 25.2347 344.48 25.5364C344.48 25.8381 344.725 26.0826 345.026 26.0826Z" fill="#E28539"/>
<path d="M369.569 25.6751C369.642 25.6751 369.707 25.6099 369.707 25.5366C369.707 25.4632 369.642 25.3979 369.569 25.3979C369.495 25.3979 369.43 25.4632 369.43 25.5366C369.43 25.6099 369.495 25.6751 369.569 25.6751Z" fill="#E28539"/>
<path d="M75.0537 50.1519C75.0945 50.1519 75.1271 50.1194 75.1271 50.0786C75.1271 50.046 75.0945 50.0133 75.0537 50.0133C75.0211 50.0133 74.9885 50.046 74.9885 50.0786C74.9885 50.1194 75.0211 50.1519 75.0537 50.1519Z" fill="#E28539"/>
<path d="M99.5959 50.4864C99.8242 50.4864 100.004 50.307 100.004 50.0787C100.004 49.8586 99.8242 49.671 99.5959 49.671C99.3758 49.671 99.1882 49.8586 99.1882 50.0787C99.1882 50.307 99.3758 50.4864 99.5959 50.4864Z" fill="#E28539"/>
<path d="M124.138 51.0978C124.701 51.0978 125.165 50.6412 125.165 50.0786C125.165 49.516 124.701 49.0594 124.138 49.0594C123.576 49.0594 123.119 49.516 123.119 50.0786C123.119 50.6412 123.576 51.0978 124.138 51.0978Z" fill="#E28539"/>
<path d="M148.68 51.7175C149.585 51.7175 150.319 50.9837 150.319 50.0786C150.319 49.1817 149.585 48.4479 148.68 48.4479C147.783 48.4479 147.05 49.1817 147.05 50.0786C147.05 50.9837 147.783 51.7175 148.68 51.7175Z" fill="#E28539"/>
<path d="M173.231 52.1251C174.356 52.1251 175.269 51.2037 175.269 50.0785C175.269 48.9534 174.356 48.0402 173.231 48.0402C172.097 48.0402 171.184 48.9534 171.184 50.0785C171.184 51.2037 172.097 52.1251 173.231 52.1251Z" fill="#E28539"/>
<path d="M197.773 52.4594C199.086 52.4594 200.154 51.3995 200.154 50.0786C200.154 48.7659 199.086 47.6977 197.773 47.6977C196.452 47.6977 195.384 48.7659 195.384 50.0786C195.384 51.3995 196.452 52.4594 197.773 52.4594Z" fill="#E28539"/>
<path d="M222.315 52.6634C223.742 52.6634 224.9 51.5056 224.9 50.0788C224.9 48.6519 223.742 47.4941 222.315 47.4941C220.88 47.4941 219.722 48.6519 219.722 50.0788C219.722 51.5056 220.88 52.6634 222.315 52.6634Z" fill="#E28539"/>
<path d="M246.858 52.8019C248.358 52.8019 249.573 51.5871 249.573 50.0787C249.573 48.5784 248.358 47.3554 246.858 47.3554C245.349 47.3554 244.134 48.5784 244.134 50.0787C244.134 51.5871 245.349 52.8019 246.858 52.8019Z" fill="#E28539"/>
<path d="M271.4 52.7365C272.867 52.7365 274.05 51.5461 274.05 50.0785C274.05 48.6108 272.867 47.4286 271.4 47.4286C269.932 47.4286 268.742 48.6108 268.742 50.0785C268.742 51.5461 269.932 52.7365 271.4 52.7365Z" fill="#E28539"/>
<path d="M295.942 52.5329C297.295 52.5329 298.388 51.4322 298.388 50.0787C298.388 48.7252 297.295 47.6326 295.942 47.6326C294.588 47.6326 293.487 48.7252 293.487 50.0787C293.487 51.4322 294.588 52.5329 295.942 52.5329Z" fill="#E28539"/>
<path d="M320.484 52.1904C321.65 52.1904 322.596 51.2446 322.596 50.0787C322.596 48.9127 321.65 47.975 320.484 47.975C319.318 47.975 318.372 48.9127 318.372 50.0787C318.372 51.2446 319.318 52.1904 320.484 52.1904Z" fill="#E28539"/>
<path d="M345.026 51.7175C345.932 51.7175 346.657 50.9837 346.657 50.0786C346.657 49.1817 345.932 48.4479 345.026 48.4479C344.121 48.4479 343.396 49.1817 343.396 50.0786C343.396 50.9837 344.121 51.7175 345.026 51.7175Z" fill="#E28539"/>
<path d="M369.569 51.1714C370.172 51.1714 370.653 50.6822 370.653 50.0788C370.653 49.4836 370.172 48.9943 369.569 48.9943C368.965 48.9943 368.476 49.4836 368.476 50.0788C368.476 50.6822 368.965 51.1714 369.569 51.1714Z" fill="#E28539"/>
<path d="M394.111 50.5598C394.372 50.5598 394.583 50.3397 394.583 50.0788C394.583 49.8179 394.372 49.6058 394.111 49.6058C393.85 49.6058 393.638 49.8179 393.638 50.0788C393.638 50.3397 393.85 50.5598 394.111 50.5598Z" fill="#E28539"/>
<path d="M418.653 50.1519C418.694 50.1519 418.718 50.1194 418.718 50.0786C418.718 50.046 418.694 50.0133 418.653 50.0133C418.612 50.0133 418.588 50.046 418.588 50.0786C418.588 50.1194 418.612 50.1519 418.653 50.1519Z" fill="#E28539"/>
<path d="M50.5115 74.6945C50.5523 74.6945 50.5848 74.6619 50.5848 74.6212C50.5848 74.5885 50.5523 74.5559 50.5115 74.5559C50.4789 74.5559 50.4463 74.5885 50.4463 74.6212C50.4463 74.6619 50.4789 74.6945 50.5115 74.6945Z" fill="#E28539"/>
<path d="M75.0536 75.2324C75.396 75.2324 75.6651 74.9634 75.6651 74.6209C75.6651 74.2866 75.396 74.0094 75.0536 74.0094C74.7193 74.0094 74.4421 74.2866 74.4421 74.6209C74.4421 74.9634 74.7193 75.2324 75.0536 75.2324Z" fill="#E28539"/>
<path d="M99.596 76.056C100.387 76.056 101.031 75.4119 101.031 74.621C101.031 73.8301 100.387 73.1942 99.596 73.1942C98.8051 73.1942 98.1691 73.8301 98.1691 74.621C98.1691 75.4119 98.8051 76.056 99.596 76.056Z" fill="#E28539"/>
<path d="M124.138 76.7326C125.304 76.7326 126.25 75.7868 126.25 74.6209C126.25 73.4549 125.304 72.5172 124.138 72.5172C122.972 72.5172 122.034 73.4549 122.034 74.6209C122.034 75.7868 122.972 76.7326 124.138 76.7326Z" fill="#E28539"/>
<path d="M148.68 77.3441C150.189 77.3441 151.404 76.1293 151.404 74.6209C151.404 73.1206 150.189 71.9057 148.68 71.9057C147.18 71.9057 145.965 73.1206 145.965 74.6209C145.965 76.1293 147.18 77.3441 148.68 77.3441Z" fill="#E28539"/>
<path d="M173.231 77.8907C175.033 77.8907 176.492 76.4312 176.492 74.6211C176.492 72.8192 175.033 71.3597 173.231 71.3597C171.421 71.3597 169.961 72.8192 169.961 74.6211C169.961 76.4312 171.421 77.8907 173.231 77.8907Z" fill="#E28539"/>
<path d="M197.773 78.2328C199.763 78.2328 201.377 76.6184 201.377 74.6208C201.377 72.6313 199.763 71.0169 197.773 71.0169C195.775 71.0169 194.161 72.6313 194.161 74.6208C194.161 76.6184 195.775 78.2328 197.773 78.2328Z" fill="#E28539"/>
<path d="M222.315 78.502C224.451 78.502 226.188 76.7653 226.188 74.6209C226.188 72.4847 224.451 70.7398 222.315 70.7398C220.171 70.7398 218.434 72.4847 218.434 74.6209C218.434 76.7653 220.171 78.502 222.315 78.502Z" fill="#E28539"/>
<path d="M246.858 78.5673C249.035 78.5673 250.804 76.8062 250.804 74.621C250.804 72.444 249.035 70.6747 246.858 70.6747C244.672 70.6747 242.911 72.444 242.911 74.621C242.911 76.8062 244.672 78.5673 246.858 78.5673Z" fill="#E28539"/>
<path d="M271.4 78.502C273.536 78.502 275.273 76.7653 275.273 74.6209C275.273 72.4847 273.536 70.7398 271.4 70.7398C269.255 70.7398 267.519 72.4847 267.519 74.6209C267.519 76.7653 269.255 78.502 271.4 78.502Z" fill="#E28539"/>
<path d="M295.942 78.2982C297.972 78.2982 299.611 76.6512 299.611 74.621C299.611 72.5907 297.972 70.9519 295.942 70.9519C293.912 70.9519 292.264 72.5907 292.264 74.621C292.264 76.6512 293.912 78.2982 295.942 78.2982Z" fill="#E28539"/>
<path d="M320.484 77.8907C322.286 77.8907 323.746 76.4312 323.746 74.6211C323.746 72.8192 322.286 71.3597 320.484 71.3597C318.682 71.3597 317.215 72.8192 317.215 74.6211C317.215 76.4312 318.682 77.8907 320.484 77.8907Z" fill="#E28539"/>
<path d="M345.026 77.4092C346.567 77.4092 347.815 76.1618 347.815 74.6208C347.815 73.0798 346.567 71.8322 345.026 71.8322C343.485 71.8322 342.238 73.0798 342.238 74.6208C342.238 76.1618 343.485 77.4092 345.026 77.4092Z" fill="#E28539"/>
<path d="M369.569 76.7978C370.767 76.7978 371.746 75.8275 371.746 74.6208C371.746 73.4222 370.767 72.4438 369.569 72.4438C368.362 72.4438 367.391 73.4222 367.391 74.6208C367.391 75.8275 368.362 76.7978 369.569 76.7978Z" fill="#E28539"/>
<path d="M394.111 76.1212C394.935 76.1212 395.611 75.4526 395.611 74.621C395.611 73.7975 394.935 73.1288 394.111 73.1288C393.287 73.1288 392.611 73.7975 392.611 74.621C392.611 75.4526 393.287 76.1212 394.111 76.1212Z" fill="#E28539"/>
<path d="M418.653 75.3061C419.028 75.3061 419.338 74.9963 419.338 74.6212C419.338 74.2461 419.028 73.9444 418.653 73.9444C418.278 73.9444 417.976 74.2461 417.976 74.6212C417.976 74.9963 418.278 75.3061 418.653 75.3061Z" fill="#E28539"/>
<path d="M443.195 74.6945C443.236 74.6945 443.261 74.6619 443.261 74.6212C443.261 74.5885 443.236 74.5559 443.195 74.5559C443.163 74.5559 443.13 74.5885 443.13 74.6212C443.13 74.6619 443.163 74.6945 443.195 74.6945Z" fill="#E28539"/>
<path d="M25.969 99.2363C26.0098 99.2363 26.0342 99.2037 26.0342 99.1629C26.0342 99.1303 26.0098 99.0976 25.969 99.0976C25.9364 99.0976 25.9038 99.1303 25.9038 99.1629C25.9038 99.2037 25.9364 99.2363 25.969 99.2363Z" fill="#E28539"/>
<path d="M50.5114 99.7747C50.8539 99.7747 51.1229 99.5057 51.1229 99.1632C51.1229 98.8289 50.8539 98.5517 50.5114 98.5517C50.1771 98.5517 49.8999 98.8289 49.8999 99.1632C49.8999 99.5057 50.1771 99.7747 50.5114 99.7747Z" fill="#E28539"/>
<path d="M75.0536 100.729C75.9179 100.729 76.6191 100.028 76.6191 99.1634C76.6191 98.2991 75.9179 97.5979 75.0536 97.5979C74.1893 97.5979 73.4881 98.2991 73.4881 99.1634C73.4881 100.028 74.1893 100.729 75.0536 100.729Z" fill="#E28539"/>
<path d="M99.5957 101.544C100.917 101.544 101.977 100.484 101.977 99.1631C101.977 97.8504 100.917 96.7822 99.5957 96.7822C98.283 96.7822 97.2148 97.8504 97.2148 99.1631C97.2148 100.484 98.283 101.544 99.5957 101.544Z" fill="#E28539"/>
<path d="M124.138 102.367C125.907 102.367 127.343 100.932 127.343 99.1631C127.343 97.4019 125.907 95.9669 124.138 95.9669C122.377 95.9669 120.942 97.4019 120.942 99.1631C120.942 100.932 122.377 102.367 124.138 102.367Z" fill="#E28539"/>
<path d="M148.68 102.979C150.792 102.979 152.496 101.267 152.496 99.1632C152.496 97.0596 150.792 95.3555 148.68 95.3555C146.577 95.3555 144.873 97.0596 144.873 99.1632C144.873 101.267 146.577 102.979 148.68 102.979Z" fill="#E28539"/>
<path d="M173.231 103.59C175.669 103.59 177.65 101.609 177.65 99.1631C177.65 96.7252 175.669 94.7438 173.231 94.7438C170.785 94.7438 168.803 96.7252 168.803 99.1631C168.803 101.609 170.785 103.59 173.231 103.59Z" fill="#E28539"/>
<path d="M197.773 103.998C200.439 103.998 202.6 101.838 202.6 99.1632C202.6 96.497 200.439 94.3363 197.773 94.3363C195.099 94.3363 192.938 96.497 192.938 99.1632C192.938 101.838 195.099 103.998 197.773 103.998Z" fill="#E28539"/>
<path d="M222.315 104.267C225.128 104.267 227.419 101.984 227.419 99.1633C227.419 96.3503 225.128 94.0591 222.315 94.0591C219.494 94.0591 217.211 96.3503 217.211 99.1633C217.211 101.984 219.494 104.267 222.315 104.267Z" fill="#E28539"/>
<path d="M246.857 104.34C249.711 104.34 252.027 102.025 252.027 99.1629C252.027 96.3092 249.711 93.9935 246.857 93.9935C243.995 93.9935 241.68 96.3092 241.68 99.1629C241.68 102.025 243.995 104.34 246.857 104.34Z" fill="#E28539"/>
<path d="M271.4 104.267C274.213 104.267 276.504 101.984 276.504 99.1633C276.504 96.3503 274.213 94.0591 271.4 94.0591C268.579 94.0591 266.296 96.3503 266.296 99.1633C266.296 101.984 268.579 104.267 271.4 104.267Z" fill="#E28539"/>
<path d="M295.942 103.998C298.608 103.998 300.769 101.838 300.769 99.1632C300.769 96.497 298.608 94.3363 295.942 94.3363C293.268 94.3363 291.107 96.497 291.107 99.1632C291.107 101.838 293.268 103.998 295.942 103.998Z" fill="#E28539"/>
<path d="M320.484 103.59C322.922 103.59 324.904 101.609 324.904 99.1631C324.904 96.7252 322.922 94.7438 320.484 94.7438C318.038 94.7438 316.057 96.7252 316.057 99.1631C316.057 101.609 318.038 103.59 320.484 103.59Z" fill="#E28539"/>
<path d="M345.026 103.044C347.171 103.044 348.908 101.308 348.908 99.1631C348.908 97.0269 347.171 95.2902 345.026 95.2902C342.882 95.2902 341.145 97.0269 341.145 99.1631C341.145 101.308 342.882 103.044 345.026 103.044Z" fill="#E28539"/>
<path d="M369.569 102.433C371.371 102.433 372.838 100.973 372.838 99.1633C372.838 97.3613 371.371 95.9018 369.569 95.9018C367.767 95.9018 366.299 97.3613 366.299 99.1633C366.299 100.973 367.767 102.433 369.569 102.433Z" fill="#E28539"/>
<path d="M394.111 101.617C395.464 101.617 396.557 100.517 396.557 99.1631C396.557 97.8097 395.464 96.7171 394.111 96.7171C392.757 96.7171 391.665 97.8097 391.665 99.1631C391.665 100.517 392.757 101.617 394.111 101.617Z" fill="#E28539"/>
<path d="M418.653 100.802C419.558 100.802 420.284 100.068 420.284 99.1634C420.284 98.2665 419.558 97.5326 418.653 97.5326C417.748 97.5326 417.022 98.2665 417.022 99.1634C417.022 100.068 417.748 100.802 418.653 100.802Z" fill="#E28539"/>
<path d="M443.195 99.9133C443.611 99.9133 443.945 99.5791 443.945 99.1632C443.945 98.7556 443.611 98.4212 443.195 98.4212C442.779 98.4212 442.445 98.7556 442.445 99.1632C442.445 99.5791 442.779 99.9133 443.195 99.9133Z" fill="#E28539"/>
<path d="M467.738 99.2363C467.778 99.2363 467.811 99.2037 467.811 99.1629C467.811 99.1303 467.778 99.0976 467.738 99.0976C467.705 99.0976 467.672 99.1303 467.672 99.1629C467.672 99.2037 467.705 99.2363 467.738 99.2363Z" fill="#E28539"/>
<path d="M25.9693 124.113C26.1976 124.113 26.3769 123.934 26.3769 123.705C26.3769 123.485 26.1976 123.298 25.9693 123.298C25.741 123.298 25.5616 123.485 25.5616 123.705C25.5616 123.934 25.741 124.113 25.9693 124.113Z" fill="#E28539"/>
<path d="M50.5115 125.14C51.3024 125.14 51.9384 124.496 51.9384 123.705C51.9384 122.923 51.3024 122.279 50.5115 122.279C49.7206 122.279 49.0847 122.923 49.0847 123.705C49.0847 124.496 49.7206 125.14 50.5115 125.14Z" fill="#E28539"/>
<path d="M75.0538 126.095C76.3746 126.095 77.4346 125.027 77.4346 123.706C77.4346 122.393 76.3746 121.325 75.0538 121.325C73.741 121.325 72.6729 122.393 72.6729 123.706C72.6729 125.027 73.741 126.095 75.0538 126.095Z" fill="#E28539"/>
<path d="M99.596 127.04C101.439 127.04 102.931 125.548 102.931 123.705C102.931 121.863 101.439 120.379 99.596 120.379C97.7533 120.379 96.2612 121.863 96.2612 123.705C96.2612 125.548 97.7533 127.04 99.596 127.04Z" fill="#E28539"/>
<path d="M124.138 127.864C126.437 127.864 128.296 126.005 128.296 123.705C128.296 121.414 126.437 119.555 124.138 119.555C121.847 119.555 119.988 121.414 119.988 123.705C119.988 126.005 121.847 127.864 124.138 127.864Z" fill="#E28539"/>
<path d="M148.68 128.606C151.387 128.606 153.581 126.412 153.581 123.705C153.581 120.998 151.387 118.805 148.68 118.805C145.982 118.805 143.78 120.998 143.78 123.705C143.78 126.412 145.982 128.606 148.68 128.606Z" fill="#E28539"/>
<path d="M173.231 129.225C176.272 129.225 178.743 126.755 178.743 123.705C178.743 120.664 176.272 118.193 173.231 118.193C170.181 118.193 167.711 120.664 167.711 123.705C167.711 126.755 170.181 129.225 173.231 129.225Z" fill="#E28539"/>
<path d="M197.773 129.698C201.075 129.698 203.758 127.016 203.758 123.705C203.758 120.403 201.075 117.721 197.773 117.721C194.463 117.721 191.78 120.403 191.78 123.705C191.78 127.016 194.463 129.698 197.773 129.698Z" fill="#E28539"/>
<path d="M222.315 130.041C225.805 130.041 228.643 127.203 228.643 123.705C228.643 120.216 225.805 117.378 222.315 117.378C218.818 117.378 215.98 120.216 215.98 123.705C215.98 127.203 218.818 130.041 222.315 130.041Z" fill="#E28539"/>
<path d="M246.858 130.171C250.429 130.171 253.323 127.277 253.323 123.705C253.323 120.134 250.429 117.24 246.858 117.24C243.286 117.24 240.392 120.134 240.392 123.705C240.392 127.277 243.286 130.171 246.858 130.171Z" fill="#E28539"/>
<path d="M271.4 130.041C274.89 130.041 277.727 127.203 277.727 123.705C277.727 120.216 274.89 117.378 271.4 117.378C267.902 117.378 265.064 120.216 265.064 123.705C265.064 127.203 267.902 130.041 271.4 130.041Z" fill="#E28539"/>
<path d="M295.942 129.764C299.285 129.764 302 127.057 302 123.705C302 120.363 299.285 117.656 295.942 117.656C292.599 117.656 289.884 120.363 289.884 123.705C289.884 127.057 292.599 129.764 295.942 129.764Z" fill="#E28539"/>
<path d="M320.484 129.291C323.566 129.291 326.061 126.787 326.061 123.705C326.061 120.623 323.566 118.128 320.484 118.128C317.402 118.128 314.899 120.623 314.899 123.705C314.899 126.787 317.402 129.291 320.484 129.291Z" fill="#E28539"/>
<path d="M345.026 128.679C347.766 128.679 349.992 126.453 349.992 123.705C349.992 120.966 347.766 118.74 345.026 118.74C342.279 118.74 340.061 120.966 340.061 123.705C340.061 126.453 342.279 128.679 345.026 128.679Z" fill="#E28539"/>
<path d="M369.569 127.929C371.901 127.929 373.784 126.037 373.784 123.705C373.784 121.382 371.901 119.49 369.569 119.49C367.237 119.49 365.345 121.382 365.345 123.705C365.345 126.037 367.237 127.929 369.569 127.929Z" fill="#E28539"/>
<path d="M394.111 127.114C395.994 127.114 397.511 125.589 397.511 123.705C397.511 121.83 395.994 120.305 394.111 120.305C392.236 120.305 390.711 121.83 390.711 123.705C390.711 125.589 392.236 127.114 394.111 127.114Z" fill="#E28539"/>
<path d="M418.653 126.225C420.048 126.225 421.173 125.1 421.173 123.706C421.173 122.319 420.048 121.194 418.653 121.194C417.259 121.194 416.134 122.319 416.134 123.706C416.134 125.1 417.259 126.225 418.653 126.225Z" fill="#E28539"/>
<path d="M443.195 125.206C444.027 125.206 444.695 124.537 444.695 123.705C444.695 122.882 444.027 122.213 443.195 122.213C442.372 122.213 441.695 122.882 441.695 123.705C441.695 124.537 442.372 125.206 443.195 125.206Z" fill="#E28539"/>
<path d="M467.738 124.252C468.039 124.252 468.284 124.007 468.284 123.705C468.284 123.412 468.039 123.167 467.738 123.167C467.436 123.167 467.191 123.412 467.191 123.705C467.191 124.007 467.436 124.252 467.738 124.252Z" fill="#E28539"/>
<path d="M1.42708 148.386C1.50046 148.386 1.56571 148.329 1.56571 148.248C1.56571 148.174 1.50046 148.117 1.42708 148.117C1.3537 148.117 1.28845 148.174 1.28845 148.248C1.28845 148.329 1.3537 148.386 1.42708 148.386Z" fill="#E28539"/>
<path d="M25.9693 149.275C26.5319 149.275 26.9885 148.819 26.9885 148.248C26.9885 147.685 26.5319 147.229 25.9693 147.229C25.4067 147.229 24.9501 147.685 24.9501 148.248C24.9501 148.819 25.4067 149.275 25.9693 149.275Z" fill="#E28539"/>
<path d="M50.5116 150.359C51.6775 150.359 52.6233 149.413 52.6233 148.247C52.6233 147.09 51.6775 146.144 50.5116 146.144C49.3456 146.144 48.3998 147.09 48.3998 148.247C48.3998 149.413 49.3456 150.359 50.5116 150.359Z" fill="#E28539"/>
<path d="M75.0537 151.452C76.823 151.452 78.258 150.017 78.258 148.248C78.258 146.486 76.823 145.051 75.0537 145.051C73.2925 145.051 71.8575 146.486 71.8575 148.248C71.8575 150.017 73.2925 151.452 75.0537 151.452Z" fill="#E28539"/>
<path d="M99.5959 152.406C101.887 152.406 103.746 150.547 103.746 148.248C103.746 145.957 101.887 144.098 99.5959 144.098C97.3047 144.098 95.4457 145.957 95.4457 148.248C95.4457 150.547 97.3047 152.406 99.5959 152.406Z" fill="#E28539"/>
<path d="M124.138 153.36C126.959 153.36 129.242 151.069 129.242 148.248C129.242 145.435 126.959 143.143 124.138 143.143C121.325 143.143 119.034 145.435 119.034 148.248C119.034 151.069 121.325 153.36 124.138 153.36Z" fill="#E28539"/>
<path d="M148.68 154.175C151.95 154.175 154.608 151.525 154.608 148.248C154.608 144.978 151.95 142.328 148.68 142.328C145.411 142.328 142.761 144.978 142.761 148.248C142.761 151.525 145.411 154.175 148.68 154.175Z" fill="#E28539"/>
<path d="M173.231 154.852C176.875 154.852 179.827 151.901 179.827 148.248C179.827 144.603 176.875 141.652 173.231 141.652C169.578 141.652 166.626 144.603 166.626 148.248C166.626 151.901 169.578 154.852 173.231 154.852Z" fill="#E28539"/>
<path d="M197.773 155.398C201.719 155.398 204.916 152.194 204.916 148.248C204.916 144.301 201.719 141.105 197.773 141.105C193.827 141.105 190.622 144.301 190.622 148.248C190.622 152.194 193.827 155.398 197.773 155.398Z" fill="#E28539"/>
<path d="M222.315 155.806C226.482 155.806 229.866 152.422 229.866 148.248C229.866 144.081 226.482 140.697 222.315 140.697C218.141 140.697 214.757 144.081 214.757 148.248C214.757 152.422 218.141 155.806 222.315 155.806Z" fill="#E28539"/>
<path d="M246.857 155.944C251.105 155.944 254.546 152.496 254.546 148.248C254.546 144.008 251.105 140.559 246.857 140.559C242.609 140.559 239.16 144.008 239.16 148.248C239.16 152.496 242.609 155.944 246.857 155.944Z" fill="#E28539"/>
<path d="M271.4 155.806C275.566 155.806 278.95 152.422 278.95 148.248C278.95 144.081 275.566 140.697 271.4 140.697C267.225 140.697 263.841 144.081 263.841 148.248C263.841 152.422 267.225 155.806 271.4 155.806Z" fill="#E28539"/>
<path d="M295.942 155.464C299.921 155.464 303.158 152.235 303.158 148.248C303.158 144.269 299.921 141.04 295.942 141.04C291.955 141.04 288.726 144.269 288.726 148.248C288.726 152.235 291.955 155.464 295.942 155.464Z" fill="#E28539"/>
<path d="M320.484 154.917C324.17 154.917 327.154 151.933 327.154 148.248C327.154 144.57 324.17 141.578 320.484 141.578C316.799 141.578 313.814 144.57 313.814 148.248C313.814 151.933 316.799 154.917 320.484 154.917Z" fill="#E28539"/>
<path d="M345.026 154.241C348.337 154.241 351.011 151.558 351.011 148.248C351.011 144.946 348.337 142.263 345.026 142.263C341.716 142.263 339.034 144.946 339.034 148.248C339.034 151.558 341.716 154.241 345.026 154.241Z" fill="#E28539"/>
<path d="M369.569 153.425C372.422 153.425 374.738 151.11 374.738 148.248C374.738 145.394 372.422 143.078 369.569 143.078C366.715 143.078 364.399 145.394 364.399 148.248C364.399 151.11 366.715 153.425 369.569 153.425Z" fill="#E28539"/>
<path d="M394.111 152.471C396.443 152.471 398.334 150.58 398.334 148.248C398.334 145.924 396.443 144.032 394.111 144.032C391.779 144.032 389.895 145.924 389.895 148.248C389.895 150.58 391.779 152.471 394.111 152.471Z" fill="#E28539"/>
<path d="M418.653 151.517C420.455 151.517 421.923 150.058 421.923 148.248C421.923 146.446 420.455 144.986 418.653 144.986C416.851 144.986 415.383 146.446 415.383 148.248C415.383 150.058 416.851 151.517 418.653 151.517Z" fill="#E28539"/>
<path d="M443.195 150.498C444.435 150.498 445.446 149.495 445.446 148.248C445.446 147.008 444.435 146.005 443.195 146.005C441.956 146.005 440.953 147.008 440.953 148.248C440.953 149.495 441.956 150.498 443.195 150.498Z" fill="#E28539"/>
<path d="M467.738 149.405C468.382 149.405 468.895 148.892 468.895 148.248C468.895 147.612 468.382 147.098 467.738 147.098C467.102 147.098 466.58 147.612 466.58 148.248C466.58 148.892 467.102 149.405 467.738 149.405Z" fill="#E28539"/>
<path d="M492.28 148.452C492.394 148.452 492.484 148.362 492.484 148.248C492.484 148.142 492.394 148.044 492.28 148.044C492.166 148.044 492.076 148.142 492.076 148.248C492.076 148.362 492.166 148.452 492.28 148.452Z" fill="#E28539"/>
<path d="M1.42687 173.271C1.68778 173.271 1.89976 173.059 1.89976 172.79C1.89976 172.529 1.68778 172.317 1.42687 172.317C1.16596 172.317 0.953979 172.529 0.953979 172.79C0.953979 173.059 1.16596 173.271 1.42687 173.271Z" fill="#E28539"/>
<path d="M25.9692 174.429C26.8743 174.429 27.5999 173.695 27.5999 172.79C27.5999 171.893 26.8743 171.159 25.9692 171.159C25.0642 171.159 24.3385 171.893 24.3385 172.79C24.3385 173.695 25.0642 174.429 25.9692 174.429Z" fill="#E28539"/>
<path d="M50.5116 175.513C52.02 175.513 53.2348 174.298 53.2348 172.79C53.2348 171.29 52.02 170.075 50.5116 170.075C49.0113 170.075 47.7883 171.29 47.7883 172.79C47.7883 174.298 49.0113 175.513 50.5116 175.513Z" fill="#E28539"/>
<path d="M75.0537 176.606C77.1573 176.606 78.8696 174.902 78.8696 172.79C78.8696 170.686 77.1573 168.982 75.0537 168.982C72.9501 168.982 71.246 170.686 71.246 172.79C71.246 174.902 72.9501 176.606 75.0537 176.606Z" fill="#E28539"/>
<path d="M99.596 177.698C102.303 177.698 104.496 175.497 104.496 172.79C104.496 170.091 102.303 167.898 99.596 167.898C96.889 167.898 94.6957 170.091 94.6957 172.79C94.6957 175.497 96.889 177.698 99.596 177.698Z" fill="#E28539"/>
<path d="M124.138 178.718C127.408 178.718 130.066 176.068 130.066 172.79C130.066 169.52 127.408 166.871 124.138 166.871C120.868 166.871 118.218 169.52 118.218 172.79C118.218 176.068 120.868 178.718 124.138 178.718Z" fill="#E28539"/>
<path d="M148.68 179.598C152.439 179.598 155.488 176.557 155.488 172.79C155.488 169.039 152.439 165.99 148.68 165.99C144.921 165.99 141.88 169.039 141.88 172.79C141.88 176.557 144.921 179.598 148.68 179.598Z" fill="#E28539"/>
<path d="M173.231 180.414C177.438 180.414 180.846 177.005 180.846 172.79C180.846 168.583 177.438 165.174 173.231 165.174C169.015 165.174 165.607 168.583 165.607 172.79C165.607 177.005 169.015 180.414 173.231 180.414Z" fill="#E28539"/>
<path d="M197.773 181.098C202.355 181.098 206.073 177.38 206.073 172.79C206.073 168.208 202.355 164.49 197.773 164.49C193.182 164.49 189.464 168.208 189.464 172.79C189.464 177.38 193.182 181.098 197.773 181.098Z" fill="#E28539"/>
<path d="M222.315 181.506C227.126 181.506 231.023 177.609 231.023 172.79C231.023 167.979 227.126 164.082 222.315 164.082C217.505 164.082 213.599 167.979 213.599 172.79C213.599 177.609 217.505 181.506 222.315 181.506Z" fill="#E28539"/>
<path d="M246.857 181.71C251.782 181.71 255.769 177.715 255.769 172.79C255.769 167.874 251.782 163.878 246.857 163.878C241.933 163.878 237.937 167.874 237.937 172.79C237.937 177.715 241.933 181.71 246.857 181.71Z" fill="#E28539"/>
<path d="M271.4 181.571C276.243 181.571 280.173 177.641 280.173 172.79C280.173 167.947 276.243 164.017 271.4 164.017C266.549 164.017 262.618 167.947 262.618 172.79C262.618 177.641 266.549 181.571 271.4 181.571Z" fill="#E28539"/>
<path d="M295.942 181.164C300.565 181.164 304.308 177.421 304.308 172.79C304.308 168.175 300.565 164.424 295.942 164.424C291.319 164.424 287.568 168.175 287.568 172.79C287.568 177.421 291.319 181.164 295.942 181.164Z" fill="#E28539"/>
<path d="M320.484 180.552C324.765 180.552 328.238 177.079 328.238 172.79C328.238 168.509 324.765 165.036 320.484 165.036C316.195 165.036 312.722 168.509 312.722 172.79C312.722 177.079 316.195 180.552 320.484 180.552Z" fill="#E28539"/>
<path d="M345.026 179.737C348.859 179.737 351.965 176.63 351.965 172.79C351.965 168.958 348.859 165.851 345.026 165.851C341.194 165.851 338.088 168.958 338.088 172.79C338.088 176.63 341.194 179.737 345.026 179.737Z" fill="#E28539"/>
<path d="M369.569 178.783C372.879 178.783 375.553 176.1 375.553 172.79C375.553 169.488 372.879 166.805 369.569 166.805C366.258 166.805 363.576 169.488 363.576 172.79C363.576 176.1 366.258 178.783 369.569 178.783Z" fill="#E28539"/>
<path d="M394.111 177.829C396.891 177.829 399.15 175.579 399.15 172.79C399.15 170.01 396.891 167.759 394.111 167.759C391.331 167.759 389.072 170.01 389.072 172.79C389.072 175.579 391.331 177.829 394.111 177.829Z" fill="#E28539"/>
<path d="M418.653 176.745C420.83 176.745 422.599 174.975 422.599 172.79C422.599 170.613 420.83 168.844 418.653 168.844C416.476 168.844 414.707 170.613 414.707 172.79C414.707 174.975 416.476 176.745 418.653 176.745Z" fill="#E28539"/>
<path d="M443.195 175.652C444.777 175.652 446.057 174.371 446.057 172.79C446.057 171.216 444.777 169.936 443.195 169.936C441.622 169.936 440.342 171.216 440.342 172.79C440.342 174.371 441.622 175.652 443.195 175.652Z" fill="#E28539"/>
<path d="M467.738 174.494C468.675 174.494 469.442 173.736 469.442 172.79C469.442 171.852 468.675 171.094 467.738 171.094C466.8 171.094 466.042 171.852 466.042 172.79C466.042 173.736 466.8 174.494 467.738 174.494Z" fill="#E28539"/>
<path d="M492.28 173.409C492.622 173.409 492.891 173.132 492.891 172.79C492.891 172.456 492.622 172.178 492.28 172.178C491.946 172.178 491.668 172.456 491.668 172.79C491.668 173.132 491.946 173.409 492.28 173.409Z" fill="#E28539"/>
<path d="M1.42702 198.221C1.91623 198.221 2.31571 197.821 2.31571 197.34C2.31571 196.851 1.91623 196.452 1.42702 196.452C0.937803 196.452 0.546448 196.851 0.546448 197.34C0.546448 197.821 0.937803 198.221 1.42702 198.221Z" fill="#E28539"/>
<path d="M25.9691 199.379C27.0943 199.379 28.0156 198.465 28.0156 197.34C28.0156 196.207 27.0943 195.294 25.9691 195.294C24.8439 195.294 23.9307 196.207 23.9307 197.34C23.9307 198.465 24.8439 199.379 25.9691 199.379Z" fill="#E28539"/>
<path d="M50.5115 200.602C52.3135 200.602 53.7811 199.142 53.7811 197.34C53.7811 195.53 52.3135 194.071 50.5115 194.071C48.7096 194.071 47.2501 195.53 47.2501 197.34C47.2501 199.142 48.7096 200.602 50.5115 200.602Z" fill="#E28539"/>
<path d="M75.0537 201.759C77.4998 201.759 79.4811 199.778 79.4811 197.34C79.4811 194.894 77.4998 192.913 75.0537 192.913C72.6158 192.913 70.6345 194.894 70.6345 197.34C70.6345 199.778 72.6158 201.759 75.0537 201.759Z" fill="#E28539"/>
<path d="M99.596 202.852C102.645 202.852 105.108 200.382 105.108 197.34C105.108 194.291 102.645 191.82 99.596 191.82C96.5547 191.82 94.0841 194.291 94.0841 197.34C94.0841 200.382 96.5547 202.852 99.596 202.852Z" fill="#E28539"/>
<path d="M124.138 203.937C127.783 203.937 130.742 200.985 130.742 197.34C130.742 193.688 127.783 190.736 124.138 190.736C120.493 190.736 117.542 193.688 117.542 197.34C117.542 200.985 120.493 203.937 124.138 203.937Z" fill="#E28539"/>
<path d="M148.68 204.956C152.896 204.956 156.304 201.547 156.304 197.34C156.304 193.125 152.896 189.717 148.68 189.717C144.473 189.717 141.065 193.125 141.065 197.34C141.065 201.547 144.473 204.956 148.68 204.956Z" fill="#E28539"/>
<path d="M173.231 205.91C177.96 205.91 181.8 202.069 181.8 197.34C181.8 192.603 177.96 188.763 173.231 188.763C168.494 188.763 164.653 192.603 164.653 197.34C164.653 202.069 168.494 205.91 173.231 205.91Z" fill="#E28539"/>
<path d="M197.773 206.725C202.959 206.725 207.158 202.526 207.158 197.34C207.158 192.146 202.959 187.947 197.773 187.947C192.579 187.947 188.38 192.146 188.38 197.34C188.38 202.526 192.579 206.725 197.773 206.725Z" fill="#E28539"/>
<path d="M222.315 207.271C227.803 207.271 232.246 202.828 232.246 197.34C232.246 191.853 227.803 187.401 222.315 187.401C216.828 187.401 212.376 191.853 212.376 197.34C212.376 202.828 216.828 207.271 222.315 207.271Z" fill="#E28539"/>
<path d="M246.857 207.475C252.459 207.475 256.992 202.933 256.992 197.34C256.992 191.739 252.459 187.197 246.857 187.197C241.256 187.197 236.714 191.739 236.714 197.34C236.714 202.933 241.256 207.475 246.857 207.475Z" fill="#E28539"/>
<path d="M271.4 207.271C276.887 207.271 281.331 202.828 281.331 197.34C281.331 191.853 276.887 187.401 271.4 187.401C265.912 187.401 261.46 191.853 261.46 197.34C261.46 202.828 265.912 207.271 271.4 207.271Z" fill="#E28539"/>
<path d="M295.942 206.798C301.168 206.798 305.4 202.558 305.4 197.34C305.4 192.114 301.168 187.874 295.942 187.874C290.715 187.874 286.484 192.114 286.484 197.34C286.484 202.558 290.715 206.798 295.942 206.798Z" fill="#E28539"/>
<path d="M320.484 205.983C325.254 205.983 329.127 202.11 329.127 197.34C329.127 192.562 325.254 188.69 320.484 188.69C315.706 188.69 311.841 192.562 311.841 197.34C311.841 202.11 315.706 205.983 320.484 205.983Z" fill="#E28539"/>
<path d="M345.026 205.094C349.307 205.094 352.78 201.621 352.78 197.34C352.78 193.051 349.307 189.578 345.026 189.578C340.738 189.578 337.264 193.051 337.264 197.34C337.264 201.621 340.738 205.094 345.026 205.094Z" fill="#E28539"/>
<path d="M369.569 204.075C373.287 204.075 376.304 201.058 376.304 197.34C376.304 193.614 373.287 190.597 369.569 190.597C365.851 190.597 362.834 193.614 362.834 197.34C362.834 201.058 365.851 204.075 369.569 204.075Z" fill="#E28539"/>
<path d="M394.111 202.982C397.234 202.982 399.761 200.455 399.761 197.34C399.761 194.217 397.234 191.69 394.111 191.69C390.988 191.69 388.461 194.217 388.461 197.34C388.461 200.455 390.988 202.982 394.111 202.982Z" fill="#E28539"/>
<path d="M418.653 201.833C421.132 201.833 423.146 199.819 423.146 197.34C423.146 194.853 421.132 192.848 418.653 192.848C416.174 192.848 414.16 194.853 414.16 197.34C414.16 199.819 416.174 201.833 418.653 201.833Z" fill="#E28539"/>
<path d="M443.195 200.675C445.038 200.675 446.53 199.183 446.53 197.34C446.53 195.498 445.038 194.006 443.195 194.006C441.353 194.006 439.861 195.498 439.861 197.34C439.861 199.183 441.353 200.675 443.195 200.675Z" fill="#E28539"/>
<path d="M467.737 199.517C468.944 199.517 469.914 198.539 469.914 197.34C469.914 196.133 468.944 195.155 467.737 195.155C466.539 195.155 465.56 196.133 465.56 197.34C465.56 198.539 466.539 199.517 467.737 199.517Z" fill="#E28539"/>
<path d="M492.28 198.359C492.843 198.359 493.299 197.903 493.299 197.34C493.299 196.778 492.843 196.313 492.28 196.313C491.717 196.313 491.261 196.778 491.261 197.34C491.261 197.903 491.717 198.359 492.28 198.359Z" fill="#E28539"/>
<path d="M516.822 197.406C516.863 197.406 516.895 197.373 516.895 197.34C516.895 197.3 516.863 197.267 516.822 197.267C516.789 197.267 516.757 197.3 516.757 197.34C516.757 197.373 516.789 197.406 516.822 197.406Z" fill="#E28539"/>
<path d="M1.42687 223.04C2.06284 223.04 2.58469 222.518 2.58469 221.882C2.58469 221.238 2.06284 220.725 1.42687 220.725C0.790887 220.725 0.269043 221.238 0.269043 221.882C0.269043 222.518 0.790887 223.04 1.42687 223.04Z" fill="#E28539"/>
<path d="M25.9694 224.263C27.2821 224.263 28.3502 223.195 28.3502 221.882C28.3502 220.562 27.2821 219.494 25.9694 219.494C24.6566 219.494 23.5885 220.562 23.5885 221.882C23.5885 223.195 24.6566 224.263 25.9694 224.263Z" fill="#E28539"/>
<path d="M50.5112 225.486C52.5007 225.486 54.1233 223.872 54.1233 221.882C54.1233 219.885 52.5007 218.27 50.5112 218.27C48.5218 218.27 46.9073 219.885 46.9073 221.882C46.9073 223.872 48.5218 225.486 50.5112 225.486Z" fill="#E28539"/>
<path d="M75.0538 226.709C77.7282 226.709 79.8888 224.549 79.8888 221.882C79.8888 219.208 77.7282 217.047 75.0538 217.047C72.3876 217.047 70.2269 219.208 70.2269 221.882C70.2269 224.549 72.3876 226.709 75.0538 226.709Z" fill="#E28539"/>
<path d="M99.5959 227.867C102.906 227.867 105.589 225.185 105.589 221.882C105.589 218.572 102.906 215.889 99.5959 215.889C96.2937 215.889 93.6111 218.572 93.6111 221.882C93.6111 225.185 96.2937 227.867 99.5959 227.867Z" fill="#E28539"/>
<path d="M124.138 229.025C128.084 229.025 131.289 225.829 131.289 221.882C131.289 217.936 128.084 214.732 124.138 214.732C120.192 214.732 116.995 217.936 116.995 221.882C116.995 225.829 120.192 229.025 124.138 229.025Z" fill="#E28539"/>
<path d="M148.68 230.183C153.271 230.183 156.989 226.465 156.989 221.883C156.989 217.292 153.271 213.574 148.68 213.574C144.098 213.574 140.38 217.292 140.38 221.883C140.38 226.465 144.098 230.183 148.68 230.183Z" fill="#E28539"/>
<path d="M173.231 231.267C178.416 231.267 182.615 227.068 182.615 221.882C182.615 216.689 178.416 212.49 173.231 212.49C168.037 212.49 163.838 216.689 163.838 221.882C163.838 227.068 168.037 231.267 173.231 231.267Z" fill="#E28539"/>
<path d="M197.773 232.221C203.481 232.221 208.112 227.59 208.112 221.882C208.112 216.167 203.481 211.536 197.773 211.536C192.057 211.536 187.426 216.167 187.426 221.882C187.426 227.59 192.057 232.221 197.773 232.221Z" fill="#E28539"/>
<path d="M222.315 232.971C228.439 232.971 233.404 228.006 233.404 221.882C233.404 215.751 228.439 210.785 222.315 210.785C216.184 210.785 211.218 215.751 211.218 221.882C211.218 228.006 216.184 232.971 222.315 232.971Z" fill="#E28539"/>
<path d="M246.857 233.249C253.127 233.249 258.223 228.153 258.223 221.883C258.223 215.604 253.127 210.516 246.857 210.516C240.579 210.516 235.491 215.604 235.491 221.883C235.491 228.153 240.579 233.249 246.857 233.249Z" fill="#E28539"/>
<path d="M271.4 232.971C277.523 232.971 282.488 228.006 282.488 221.882C282.488 215.751 277.523 210.785 271.4 210.785C265.268 210.785 260.302 215.751 260.302 221.882C260.302 228.006 265.268 232.971 271.4 232.971Z" fill="#E28539"/>
<path d="M295.942 232.295C301.69 232.295 306.354 227.631 306.354 221.882C306.354 216.126 301.69 211.47 295.942 211.47C290.186 211.47 285.53 216.126 285.53 221.882C285.53 227.631 290.186 232.295 295.942 232.295Z" fill="#E28539"/>
<path d="M320.484 231.341C325.711 231.341 329.942 227.101 329.942 221.883C329.942 216.656 325.711 212.416 320.484 212.416C315.258 212.416 311.026 216.656 311.026 221.883C311.026 227.101 315.258 231.341 320.484 231.341Z" fill="#E28539"/>
<path d="M345.026 230.248C349.649 230.248 353.4 226.506 353.4 221.883C353.4 217.26 349.649 213.509 345.026 213.509C340.403 213.509 336.653 217.26 336.653 221.883C336.653 226.506 340.403 230.248 345.026 230.248Z" fill="#E28539"/>
<path d="M369.569 229.164C373.588 229.164 376.85 225.902 376.85 221.882C376.85 217.855 373.588 214.601 369.569 214.601C365.549 214.601 362.287 217.855 362.287 221.882C362.287 225.902 365.549 229.164 369.569 229.164Z" fill="#E28539"/>
<path d="M394.111 228.005C397.495 228.005 400.234 225.258 400.234 221.882C400.234 218.498 397.495 215.751 394.111 215.751C390.727 215.751 387.988 218.498 387.988 221.882C387.988 225.258 390.727 228.005 394.111 228.005Z" fill="#E28539"/>
<path d="M418.653 226.848C421.401 226.848 423.619 224.622 423.619 221.882C423.619 219.135 421.401 216.909 418.653 216.909C415.914 216.909 413.688 219.135 413.688 221.882C413.688 224.622 415.914 226.848 418.653 226.848Z" fill="#E28539"/>
<path d="M443.195 225.625C445.266 225.625 446.938 223.945 446.938 221.882C446.938 219.811 445.266 218.14 443.195 218.14C441.133 218.14 439.453 219.811 439.453 221.882C439.453 223.945 441.133 225.625 443.195 225.625Z" fill="#E28539"/>
<path d="M467.738 224.394C469.132 224.394 470.257 223.269 470.257 221.883C470.257 220.488 469.132 219.363 467.738 219.363C466.352 219.363 465.218 220.488 465.218 221.883C465.218 223.269 466.352 224.394 467.738 224.394Z" fill="#E28539"/>
<path d="M492.28 223.171C492.997 223.171 493.576 222.592 493.576 221.882C493.576 221.165 492.997 220.586 492.28 220.586C491.57 220.586 490.991 221.165 490.991 221.882C490.991 222.592 491.57 223.171 492.28 223.171Z" fill="#E28539"/>
<path d="M516.822 222.086C516.936 222.086 517.026 221.988 517.026 221.882C517.026 221.768 516.936 221.679 516.822 221.679C516.716 221.679 516.618 221.768 516.618 221.882C516.618 221.988 516.716 222.086 516.822 222.086Z" fill="#E28539"/>
<path d="M1.42709 247.786C2.17722 247.786 2.78875 247.175 2.78875 246.425C2.78875 245.666 2.17722 245.063 1.42709 245.063C0.676963 245.063 0.0654297 245.666 0.0654297 246.425C0.0654297 247.175 0.676963 247.786 1.42709 247.786Z" fill="#E28539"/>
<path d="M25.9692 249.01C27.3961 249.01 28.5539 247.852 28.5539 246.425C28.5539 244.998 27.3961 243.832 25.9692 243.832C24.5423 243.832 23.3845 244.998 23.3845 246.425C23.3845 247.852 24.5423 249.01 25.9692 249.01Z" fill="#E28539"/>
<path d="M50.5114 250.306C52.6558 250.306 54.3925 248.561 54.3925 246.425C54.3925 244.28 52.6558 242.544 50.5114 242.544C48.367 242.544 46.6302 244.28 46.6302 246.425C46.6302 248.561 48.367 250.306 50.5114 250.306Z" fill="#E28539"/>
<path d="M75.0537 251.529C77.8748 251.529 80.1578 249.246 80.1578 246.425C80.1578 243.604 77.8748 241.321 75.0537 241.321C72.2326 241.321 69.9495 243.604 69.9495 246.425C69.9495 249.246 72.2326 251.529 75.0537 251.529Z" fill="#E28539"/>
<path d="M99.5959 252.752C103.094 252.752 105.931 249.914 105.931 246.425C105.931 242.927 103.094 240.089 99.5959 240.089C96.1062 240.089 93.2687 242.927 93.2687 246.425C93.2687 249.914 96.1062 252.752 99.5959 252.752Z" fill="#E28539"/>
<path d="M124.138 253.975C128.313 253.975 131.696 250.591 131.696 246.425C131.696 242.25 128.313 238.866 124.138 238.866C119.972 238.866 116.588 242.25 116.588 246.425C116.588 250.591 119.972 253.975 124.138 253.975Z" fill="#E28539"/>
<path d="M148.68 255.133C153.491 255.133 157.397 251.235 157.397 246.425C157.397 241.614 153.491 237.709 148.68 237.709C143.87 237.709 139.972 241.614 139.972 246.425C139.972 251.235 143.87 255.133 148.68 255.133Z" fill="#E28539"/>
<path d="M173.231 256.356C178.71 256.356 183.162 251.912 183.162 246.425C183.162 240.937 178.71 236.485 173.231 236.485C167.735 236.485 163.292 240.937 163.292 246.425C163.292 251.912 167.735 256.356 173.231 256.356Z" fill="#E28539"/>
<path d="M197.773 257.514C203.896 257.514 208.862 252.548 208.862 246.425C208.862 240.293 203.896 235.328 197.773 235.328C191.641 235.328 186.676 240.293 186.676 246.425C186.676 252.548 191.641 257.514 197.773 257.514Z" fill="#E28539"/>
<path d="M222.315 258.467C228.969 258.467 234.358 253.078 234.358 246.425C234.358 239.771 228.969 234.374 222.315 234.374C215.662 234.374 210.264 239.771 210.264 246.425C210.264 253.078 215.662 258.467 222.315 258.467Z" fill="#E28539"/>
<path d="M246.857 258.875C253.731 258.875 259.308 253.298 259.308 246.425C259.308 239.543 253.731 233.966 246.857 233.966C239.976 233.966 234.399 239.543 234.399 246.425C234.399 253.298 239.976 258.875 246.857 258.875Z" fill="#E28539"/>
<path d="M271.4 258.533C278.086 258.533 283.508 253.111 283.508 246.425C283.508 239.731 278.086 234.309 271.4 234.309C264.706 234.309 259.283 239.731 259.283 246.425C259.283 253.111 264.706 258.533 271.4 258.533Z" fill="#E28539"/>
<path d="M295.942 257.587C302.106 257.587 307.104 252.589 307.104 246.425C307.104 240.261 302.106 235.263 295.942 235.263C289.778 235.263 284.78 240.261 284.78 246.425C284.78 252.589 289.778 257.587 295.942 257.587Z" fill="#E28539"/>
<path d="M320.484 256.494C326.045 256.494 330.554 251.985 330.554 246.425C330.554 240.856 326.045 236.347 320.484 236.347C314.924 236.347 310.406 240.856 310.406 246.425C310.406 251.985 314.924 256.494 320.484 256.494Z" fill="#E28539"/>
<path d="M345.026 255.271C349.91 255.271 353.873 251.309 353.873 246.425C353.873 241.541 349.91 237.578 345.026 237.578C340.142 237.578 336.18 241.541 336.18 246.425C336.18 251.309 340.142 255.271 345.026 255.271Z" fill="#E28539"/>
<path d="M369.569 254.113C373.817 254.113 377.257 250.672 377.257 246.424C377.257 242.176 373.817 238.727 369.569 238.727C365.321 238.727 361.88 242.176 361.88 246.424C361.88 250.672 365.321 254.113 369.569 254.113Z" fill="#E28539"/>
<path d="M394.111 252.89C397.682 252.89 400.577 249.996 400.577 246.425C400.577 242.853 397.682 239.959 394.111 239.959C390.54 239.959 387.645 242.853 387.645 246.425C387.645 249.996 390.54 252.89 394.111 252.89Z" fill="#E28539"/>
<path d="M418.653 251.66C421.548 251.66 423.896 249.32 423.896 246.425C423.896 243.53 421.548 241.182 418.653 241.182C415.759 241.182 413.41 243.53 413.41 246.425C413.41 249.32 415.759 251.66 418.653 251.66Z" fill="#E28539"/>
<path d="M443.195 250.436C445.413 250.436 447.215 248.643 447.215 246.425C447.215 244.207 445.413 242.405 443.195 242.405C440.978 242.405 439.184 244.207 439.184 246.425C439.184 248.643 440.978 250.436 443.195 250.436Z" fill="#E28539"/>
<path d="M467.738 249.148C469.246 249.148 470.461 247.925 470.461 246.425C470.461 244.916 469.246 243.701 467.738 243.701C466.237 243.701 465.014 244.916 465.014 246.425C465.014 247.925 466.237 249.148 467.738 249.148Z" fill="#E28539"/>
<path d="M492.28 247.917C493.112 247.917 493.78 247.248 493.78 246.425C493.78 245.593 493.112 244.925 492.28 244.925C491.456 244.925 490.788 245.593 490.788 246.425C490.788 247.248 491.456 247.917 492.28 247.917Z" fill="#E28539"/>
<path d="M516.822 246.759C517.01 246.759 517.165 246.612 517.165 246.425C517.165 246.237 517.01 246.082 516.822 246.082C516.635 246.082 516.488 246.237 516.488 246.425C516.488 246.612 516.635 246.759 516.822 246.759Z" fill="#E28539"/>
<path d="M1.42687 272.394C2.21777 272.394 2.85375 271.758 2.85375 270.967C2.85375 270.176 2.21777 269.532 1.42687 269.532C0.635978 269.532 0 270.176 0 270.967C0 271.758 0.635978 272.394 1.42687 272.394Z" fill="#E28539"/>
<path d="M25.9691 273.69C27.4775 273.69 28.6923 272.467 28.6923 270.967C28.6923 269.458 27.4775 268.244 25.9691 268.244C24.4688 268.244 23.2457 269.458 23.2457 270.967C23.2457 272.467 24.4688 273.69 25.9691 273.69Z" fill="#E28539"/>
<path d="M50.5116 274.913C52.6968 274.913 54.4579 273.144 54.4579 270.967C54.4579 268.782 52.6968 267.021 50.5116 267.021C48.3346 267.021 46.5652 268.782 46.5652 270.967C46.5652 273.144 48.3346 274.913 50.5116 274.913Z" fill="#E28539"/>
<path d="M75.0534 276.136C77.9153 276.136 80.2309 273.821 80.2309 270.967C80.2309 268.105 77.9153 265.789 75.0534 265.789C72.1997 265.789 69.884 268.105 69.884 270.967C69.884 273.821 72.1997 276.136 75.0534 276.136Z" fill="#E28539"/>
<path d="M99.5959 277.433C103.167 277.433 106.062 274.538 106.062 270.967C106.062 267.396 103.167 264.501 99.5959 264.501C96.0246 264.501 93.1301 267.396 93.1301 270.967C93.1301 274.538 96.0246 277.433 99.5959 277.433Z" fill="#E28539"/>
<path d="M124.138 278.656C128.386 278.656 131.835 275.215 131.835 270.967C131.835 266.719 128.386 263.278 124.138 263.278C119.89 263.278 116.449 266.719 116.449 270.967C116.449 275.215 119.89 278.656 124.138 278.656Z" fill="#E28539"/>
<path d="M148.68 279.879C153.605 279.879 157.6 275.892 157.6 270.967C157.6 266.042 153.605 262.047 148.68 262.047C143.764 262.047 139.768 266.042 139.768 270.967C139.768 275.892 143.764 279.879 148.68 279.879Z" fill="#E28539"/>
<path d="M173.231 281.102C178.824 281.102 183.366 276.569 183.366 270.967C183.366 265.366 178.824 260.824 173.231 260.824C167.629 260.824 163.088 265.366 163.088 270.967C163.088 276.569 167.629 281.102 173.231 281.102Z" fill="#E28539"/>
<path d="M197.773 282.333C204.043 282.333 209.131 277.245 209.131 270.967C209.131 264.689 204.043 259.601 197.773 259.601C191.495 259.601 186.407 264.689 186.407 270.967C186.407 277.245 191.495 282.333 197.773 282.333Z" fill="#E28539"/>
<path d="M222.315 283.418C229.189 283.418 234.766 277.84 234.766 270.967C234.766 264.085 229.189 258.508 222.315 258.508C215.434 258.508 209.857 264.085 209.857 270.967C209.857 277.84 215.434 283.418 222.315 283.418Z" fill="#E28539"/>
<path d="M246.857 283.556C253.804 283.556 259.446 277.922 259.446 270.967C259.446 264.012 253.804 258.378 246.857 258.378C239.902 258.378 234.26 264.012 234.26 270.967C234.26 277.922 239.902 283.556 246.857 283.556Z" fill="#E28539"/>
<path d="M271.4 283.418C278.273 283.418 283.85 277.84 283.85 270.967C283.85 264.085 278.273 258.508 271.4 258.508C264.518 258.508 258.941 264.085 258.941 270.967C258.941 277.84 264.518 283.418 271.4 283.418Z" fill="#E28539"/>
<path d="M295.942 282.464C302.294 282.464 307.438 277.319 307.438 270.967C307.438 264.615 302.294 259.462 295.942 259.462C289.59 259.462 284.437 264.615 284.437 270.967C284.437 277.319 289.59 282.464 295.942 282.464Z" fill="#E28539"/>
<path d="M320.484 281.241C326.159 281.241 330.758 276.642 330.758 270.967C330.758 265.292 326.159 260.685 320.484 260.685C314.809 260.685 310.202 265.292 310.202 270.967C310.202 276.642 314.809 281.241 320.484 281.241Z" fill="#E28539"/>
<path d="M345.026 280.018C350.025 280.018 354.077 275.965 354.077 270.967C354.077 265.969 350.025 261.917 345.026 261.917C340.028 261.917 335.976 265.969 335.976 270.967C335.976 275.965 340.028 280.018 345.026 280.018Z" fill="#E28539"/>
<path d="M369.569 278.794C373.89 278.794 377.396 275.288 377.396 270.967C377.396 266.646 373.89 263.14 369.569 263.14C365.247 263.14 361.741 266.646 361.741 270.967C361.741 275.288 365.247 278.794 369.569 278.794Z" fill="#E28539"/>
<path d="M394.111 277.498C397.723 277.498 400.642 274.571 400.642 270.967C400.642 267.355 397.723 264.428 394.111 264.428C390.499 264.428 387.58 267.355 387.58 270.967C387.58 274.571 390.499 277.498 394.111 277.498Z" fill="#E28539"/>
<path d="M418.653 276.275C421.588 276.275 423.961 273.894 423.961 270.967C423.961 268.032 421.588 265.659 418.653 265.659C415.718 265.659 413.345 268.032 413.345 270.967C413.345 273.894 415.718 276.275 418.653 276.275Z" fill="#E28539"/>
<path d="M443.196 275.052C445.454 275.052 447.28 273.217 447.28 270.967C447.28 268.709 445.454 266.882 443.196 266.882C440.945 266.882 439.11 268.709 439.11 270.967C439.11 273.217 440.945 275.052 443.196 275.052Z" fill="#E28539"/>
<path d="M467.737 273.755C469.278 273.755 470.526 272.508 470.526 270.967C470.526 269.426 469.278 268.178 467.737 268.178C466.196 268.178 464.949 269.426 464.949 270.967C464.949 272.508 466.196 273.755 467.737 273.755Z" fill="#E28539"/>
<path d="M492.28 272.532C493.144 272.532 493.845 271.831 493.845 270.967C493.845 270.102 493.144 269.401 492.28 269.401C491.416 269.401 490.714 270.102 490.714 270.967C490.714 271.831 491.416 272.532 492.28 272.532Z" fill="#E28539"/>
<path d="M516.822 271.301C517.01 271.301 517.165 271.154 517.165 270.967C517.165 270.779 517.01 270.624 516.822 270.624C516.635 270.624 516.488 270.779 516.488 270.967C516.488 271.154 516.635 271.301 516.822 271.301Z" fill="#E28539"/>
<path d="M1.42709 296.871C2.17722 296.871 2.78875 296.259 2.78875 295.509C2.78875 294.759 2.17722 294.148 1.42709 294.148C0.676963 294.148 0.0654297 294.759 0.0654297 295.509C0.0654297 296.259 0.676963 296.871 1.42709 296.871Z" fill="#E28539"/>
<path d="M25.9691 298.159C27.4367 298.159 28.6271 296.977 28.6271 295.509C28.6271 294.041 27.4367 292.851 25.9691 292.851C24.5014 292.851 23.3192 294.041 23.3192 295.509C23.3192 296.977 24.5014 298.159 25.9691 298.159Z" fill="#E28539"/>
<path d="M50.5114 299.39C52.6558 299.39 54.3925 297.653 54.3925 295.509C54.3925 293.365 52.6558 291.628 50.5114 291.628C48.367 291.628 46.6302 293.365 46.6302 295.509C46.6302 297.653 48.367 299.39 50.5114 299.39Z" fill="#E28539"/>
<path d="M75.0537 300.613C77.8748 300.613 80.1578 298.33 80.1578 295.509C80.1578 292.688 77.8748 290.405 75.0537 290.405C72.2326 290.405 69.9495 292.688 69.9495 295.509C69.9495 298.33 72.2326 300.613 75.0537 300.613Z" fill="#E28539"/>
<path d="M99.5959 301.836C103.094 301.836 105.931 298.999 105.931 295.509C105.931 292.011 103.094 289.182 99.5959 289.182C96.1062 289.182 93.2687 292.011 93.2687 295.509C93.2687 298.999 96.1062 301.836 99.5959 301.836Z" fill="#E28539"/>
<path d="M124.138 303.059C128.313 303.059 131.696 299.675 131.696 295.509C131.696 291.334 128.313 287.951 124.138 287.951C119.972 287.951 116.588 291.334 116.588 295.509C116.588 299.675 119.972 303.059 124.138 303.059Z" fill="#E28539"/>
<path d="M148.68 304.291C153.532 304.291 157.462 300.353 157.462 295.509C157.462 290.658 153.532 286.728 148.68 286.728C143.837 286.728 139.907 290.658 139.907 295.509C139.907 300.353 143.837 304.291 148.68 304.291Z" fill="#E28539"/>
<path d="M173.231 305.44C178.71 305.44 183.162 300.997 183.162 295.509C183.162 290.022 178.71 285.57 173.231 285.57C167.735 285.57 163.292 290.022 163.292 295.509C163.292 300.997 167.735 305.44 173.231 305.44Z" fill="#E28539"/>
<path d="M197.773 306.598C203.896 306.598 208.862 301.633 208.862 295.509C208.862 289.378 203.896 284.412 197.773 284.412C191.641 284.412 186.676 289.378 186.676 295.509C186.676 301.633 191.641 306.598 197.773 306.598Z" fill="#E28539"/>
<path d="M222.315 307.625C229.001 307.625 234.423 302.195 234.423 295.509C234.423 288.815 229.001 283.393 222.315 283.393C215.621 283.393 210.199 288.815 210.199 295.509C210.199 302.195 215.621 307.625 222.315 307.625Z" fill="#E28539"/>
<path d="M246.857 307.96C253.731 307.96 259.308 302.383 259.308 295.509C259.308 288.628 253.731 283.051 246.857 283.051C239.976 283.051 234.399 288.628 234.399 295.509C234.399 302.383 239.976 307.96 246.857 307.96Z" fill="#E28539"/>
<path d="M271.4 307.691C278.126 307.691 283.581 302.236 283.581 295.509C283.581 288.782 278.126 283.328 271.4 283.328C264.673 283.328 259.218 288.782 259.218 295.509C259.218 302.236 264.673 307.691 271.4 307.691Z" fill="#E28539"/>
<path d="M295.942 306.737C302.139 306.737 307.169 301.706 307.169 295.509C307.169 289.304 302.139 284.282 295.942 284.282C289.737 284.282 284.714 289.304 284.714 295.509C284.714 301.706 289.737 306.737 295.942 306.737Z" fill="#E28539"/>
<path d="M320.484 305.579C326.045 305.579 330.554 301.07 330.554 295.509C330.554 289.948 326.045 285.431 320.484 285.431C314.924 285.431 310.406 289.948 310.406 295.509C310.406 301.07 314.924 305.579 320.484 305.579Z" fill="#E28539"/>
<path d="M345.027 304.421C349.951 304.421 353.938 300.434 353.938 295.509C353.938 290.584 349.951 286.589 345.027 286.589C340.102 286.589 336.107 290.584 336.107 295.509C336.107 300.434 340.102 304.421 345.027 304.421Z" fill="#E28539"/>
<path d="M369.569 303.198C373.817 303.198 377.257 299.757 377.257 295.509C377.257 291.261 373.817 287.82 369.569 287.82C365.321 287.82 361.88 291.261 361.88 295.509C361.88 299.757 365.321 303.198 369.569 303.198Z" fill="#E28539"/>
<path d="M394.111 301.975C397.682 301.975 400.577 299.08 400.577 295.509C400.577 291.938 397.682 289.043 394.111 289.043C390.54 289.043 387.645 291.938 387.645 295.509C387.645 299.08 390.54 301.975 394.111 301.975Z" fill="#E28539"/>
<path d="M418.653 300.752C421.548 300.752 423.896 298.404 423.896 295.509C423.896 292.615 421.548 290.267 418.653 290.267C415.759 290.267 413.41 292.615 413.41 295.509C413.41 298.404 415.759 300.752 418.653 300.752Z" fill="#E28539"/>
<path d="M443.195 299.521C445.413 299.521 447.215 297.727 447.215 295.509C447.215 293.292 445.413 291.49 443.195 291.49C440.978 291.49 439.184 293.292 439.184 295.509C439.184 297.727 440.978 299.521 443.195 299.521Z" fill="#E28539"/>
<path d="M467.737 298.298C469.278 298.298 470.526 297.05 470.526 295.509C470.526 293.968 469.278 292.721 467.737 292.721C466.196 292.721 464.949 293.968 464.949 295.509C464.949 297.05 466.196 298.298 467.737 298.298Z" fill="#E28539"/>
<path d="M492.28 297.001C493.112 297.001 493.78 296.333 493.78 295.509C493.78 294.678 493.112 294.009 492.28 294.009C491.456 294.009 490.788 294.678 490.788 295.509C490.788 296.333 491.456 297.001 492.28 297.001Z" fill="#E28539"/>
<path d="M516.822 295.852C517.01 295.852 517.165 295.697 517.165 295.509C517.165 295.322 517.01 295.167 516.822 295.167C516.635 295.167 516.488 295.322 516.488 295.509C516.488 295.697 516.635 295.852 516.822 295.852Z" fill="#E28539"/>
<path d="M1.42701 321.274C2.10376 321.274 2.65005 320.728 2.65005 320.051C2.65005 319.375 2.10376 318.828 1.42701 318.828C0.750268 318.828 0.203979 319.375 0.203979 320.051C0.203979 320.728 0.750268 321.274 1.42701 321.274Z" fill="#E28539"/>
<path d="M25.9691 322.498C27.3226 322.498 28.4233 321.405 28.4233 320.051C28.4233 318.698 27.3226 317.597 25.9691 317.597C24.6156 317.597 23.5231 318.698 23.5231 320.051C23.5231 321.405 24.6156 322.498 25.9691 322.498Z" fill="#E28539"/>
<path d="M50.5112 323.729C52.5415 323.729 54.1885 322.082 54.1885 320.051C54.1885 318.021 52.5415 316.374 50.5112 316.374C48.481 316.374 46.8339 318.021 46.8339 320.051C46.8339 322.082 48.481 323.729 50.5112 323.729Z" fill="#E28539"/>
<path d="M75.0538 324.878C77.7282 324.878 79.8888 322.717 79.8888 320.051C79.8888 317.385 77.7282 315.216 75.0538 315.216C72.3876 315.216 70.2269 317.385 70.2269 320.051C70.2269 322.717 72.3876 324.878 75.0538 324.878Z" fill="#E28539"/>
<path d="M99.5961 326.109C102.947 326.109 105.654 323.394 105.654 320.051C105.654 316.708 102.947 313.993 99.5961 313.993C96.2531 313.993 93.538 316.708 93.538 320.051C93.538 323.394 96.2531 326.109 99.5961 326.109Z" fill="#E28539"/>
<path d="M124.138 327.267C128.125 327.267 131.354 324.03 131.354 320.052C131.354 316.064 128.125 312.836 124.138 312.836C120.159 312.836 116.93 316.064 116.93 320.052C116.93 324.03 120.159 327.267 124.138 327.267Z" fill="#E28539"/>
<path d="M148.68 328.425C153.304 328.425 157.054 324.674 157.054 320.051C157.054 315.428 153.304 311.678 148.68 311.678C144.057 311.678 140.315 315.428 140.315 320.051C140.315 324.674 144.057 328.425 148.68 328.425Z" fill="#E28539"/>
<path d="M173.231 329.51C178.449 329.51 182.689 325.278 182.689 320.052C182.689 314.825 178.449 310.593 173.231 310.593C168.005 310.593 163.765 314.825 163.765 320.052C163.765 325.278 168.005 329.51 173.231 329.51Z" fill="#E28539"/>
<path d="M197.773 330.463C203.521 330.463 208.185 325.8 208.185 320.051C208.185 314.303 203.521 309.639 197.773 309.639C192.017 309.639 187.353 314.303 187.353 320.051C187.353 325.8 192.017 330.463 197.773 330.463Z" fill="#E28539"/>
<path d="M222.315 331.214C228.479 331.214 233.469 326.215 233.469 320.051C233.469 313.887 228.479 308.889 222.315 308.889C216.151 308.889 211.153 313.887 211.153 320.051C211.153 326.215 216.151 331.214 222.315 331.214Z" fill="#E28539"/>
<path d="M246.858 331.556C253.209 331.556 258.354 326.403 258.354 320.051C258.354 313.7 253.209 308.547 246.858 308.547C240.506 308.547 235.353 313.7 235.353 320.051C235.353 326.403 240.506 331.556 246.858 331.556Z" fill="#E28539"/>
<path d="M271.4 331.279C277.596 331.279 282.627 326.256 282.627 320.051C282.627 313.847 277.596 308.824 271.4 308.824C265.195 308.824 260.164 313.847 260.164 320.051C260.164 326.256 265.195 331.279 271.4 331.279Z" fill="#E28539"/>
<path d="M295.942 330.529C301.731 330.529 306.419 325.841 306.419 320.051C306.419 314.262 301.731 309.566 295.942 309.566C290.153 309.566 285.457 314.262 285.457 320.051C285.457 325.841 290.153 330.529 295.942 330.529Z" fill="#E28539"/>
<path d="M320.484 329.575C325.743 329.575 330.008 325.31 330.008 320.051C330.008 314.784 325.743 310.52 320.484 310.52C315.217 310.52 310.953 314.784 310.953 320.051C310.953 325.31 315.217 329.575 320.484 329.575Z" fill="#E28539"/>
<path d="M345.026 328.49C349.682 328.49 353.465 324.707 353.465 320.051C353.465 315.388 349.682 311.612 345.026 311.612C340.363 311.612 336.588 315.388 336.588 320.051C336.588 324.707 340.363 328.49 345.026 328.49Z" fill="#E28539"/>
<path d="M369.569 327.398C373.629 327.398 376.915 324.112 376.915 320.051C376.915 315.991 373.629 312.697 369.569 312.697C365.508 312.697 362.222 315.991 362.222 320.051C362.222 324.112 365.508 327.398 369.569 327.398Z" fill="#E28539"/>
<path d="M394.111 326.24C397.527 326.24 400.308 323.468 400.308 320.052C400.308 316.627 397.527 313.855 394.111 313.855C390.695 313.855 387.914 316.627 387.914 320.052C387.914 323.468 390.695 326.24 394.111 326.24Z" fill="#E28539"/>
<path d="M418.653 325.017C421.401 325.017 423.619 322.791 423.619 320.051C423.619 317.304 421.401 315.086 418.653 315.086C415.914 315.086 413.688 317.304 413.688 320.051C413.688 322.791 415.914 325.017 418.653 325.017Z" fill="#E28539"/>
<path d="M443.195 323.794C445.266 323.794 446.938 322.114 446.938 320.052C446.938 317.981 445.266 316.309 443.195 316.309C441.133 316.309 439.453 317.981 439.453 320.052C439.453 322.114 441.133 323.794 443.195 323.794Z" fill="#E28539"/>
<path d="M467.738 322.636C469.164 322.636 470.322 321.478 470.322 320.051C470.322 318.625 469.164 317.467 467.738 317.467C466.311 317.467 465.153 318.625 465.153 320.051C465.153 321.478 466.311 322.636 467.738 322.636Z" fill="#E28539"/>
<path d="M492.28 321.413C493.03 321.413 493.641 320.802 493.641 320.051C493.641 319.301 493.03 318.69 492.28 318.69C491.53 318.69 490.918 319.301 490.918 320.051C490.918 320.802 491.53 321.413 492.28 321.413Z" fill="#E28539"/>
<path d="M516.822 320.255C516.936 320.255 517.026 320.165 517.026 320.051C517.026 319.937 516.936 319.847 516.822 319.847C516.716 319.847 516.618 319.937 516.618 320.051C516.618 320.165 516.716 320.255 516.822 320.255Z" fill="#E28539"/>
<path d="M1.42702 345.474C1.91623 345.474 2.31571 345.083 2.31571 344.594C2.31571 344.105 1.91623 343.705 1.42702 343.705C0.937803 343.705 0.546448 344.105 0.546448 344.594C0.546448 345.083 0.937803 345.474 1.42702 345.474Z" fill="#E28539"/>
<path d="M25.969 346.705C27.1349 346.705 28.0807 345.76 28.0807 344.594C28.0807 343.428 27.1349 342.482 25.969 342.482C24.803 342.482 23.8572 343.428 23.8572 344.594C23.8572 345.76 24.803 346.705 25.969 346.705Z" fill="#E28539"/>
<path d="M50.5115 347.863C52.3135 347.863 53.7811 346.395 53.7811 344.594C53.7811 342.792 52.3135 341.324 50.5115 341.324C48.7096 341.324 47.2501 342.792 47.2501 344.594C47.2501 346.395 48.7096 347.863 50.5115 347.863Z" fill="#E28539"/>
<path d="M75.0537 349.013C77.4998 349.013 79.4811 347.04 79.4811 344.594C79.4811 342.148 77.4998 340.166 75.0537 340.166C72.6158 340.166 70.6345 342.148 70.6345 344.594C70.6345 347.04 72.6158 349.013 75.0537 349.013Z" fill="#E28539"/>
<path d="M99.5958 350.171C102.678 350.171 105.181 347.676 105.181 344.593C105.181 341.511 102.678 339.016 99.5958 339.016C96.5138 339.016 94.0187 341.511 94.0187 344.593C94.0187 347.676 96.5138 350.171 99.5958 350.171Z" fill="#E28539"/>
<path d="M124.138 351.263C127.823 351.263 130.808 348.279 130.808 344.594C130.808 340.908 127.823 337.924 124.138 337.924C120.461 337.924 117.468 340.908 117.468 344.594C117.468 348.279 120.461 351.263 124.138 351.263Z" fill="#E28539"/>
<path d="M148.68 352.348C152.969 352.348 156.443 348.882 156.443 344.594C156.443 340.305 152.969 336.831 148.68 336.831C144.4 336.831 140.926 340.305 140.926 344.594C140.926 348.882 144.4 352.348 148.68 352.348Z" fill="#E28539"/>
<path d="M173.231 353.237C178.001 353.237 181.874 349.364 181.874 344.594C181.874 339.816 178.001 335.951 173.231 335.951C168.453 335.951 164.58 339.816 164.58 344.594C164.58 349.364 168.453 353.237 173.231 353.237Z" fill="#E28539"/>
<path d="M197.773 354.052C202.991 354.052 207.231 349.82 207.231 344.594C207.231 339.367 202.991 335.135 197.773 335.135C192.546 335.135 188.306 339.367 188.306 344.594C188.306 349.82 192.546 354.052 197.773 354.052Z" fill="#E28539"/>
<path d="M222.315 354.663C227.876 354.663 232.385 350.154 232.385 344.593C232.385 339.033 227.876 334.524 222.315 334.524C216.747 334.524 212.238 339.033 212.238 344.593C212.238 350.154 216.747 354.663 222.315 354.663Z" fill="#E28539"/>
<path d="M246.858 354.867C252.532 354.867 257.131 350.269 257.131 344.594C257.131 338.919 252.532 334.32 246.858 334.32C241.183 334.32 236.576 338.919 236.576 344.594C236.576 350.269 241.183 354.867 246.858 354.867Z" fill="#E28539"/>
<path d="M271.4 354.663C276.961 354.663 281.469 350.154 281.469 344.593C281.469 339.033 276.961 334.524 271.4 334.524C265.831 334.524 261.322 339.033 261.322 344.593C261.322 350.154 265.831 354.663 271.4 354.663Z" fill="#E28539"/>
<path d="M295.942 354.117C301.201 354.117 305.465 349.853 305.465 344.594C305.465 339.335 301.201 335.062 295.942 335.062C290.675 335.062 286.41 339.335 286.41 344.594C286.41 349.853 290.675 354.117 295.942 354.117Z" fill="#E28539"/>
<path d="M320.484 353.375C325.327 353.375 329.266 349.445 329.266 344.594C329.266 339.742 325.327 335.812 320.484 335.812C315.633 335.812 311.703 339.742 311.703 344.594C311.703 349.445 315.633 353.375 320.484 353.375Z" fill="#E28539"/>
<path d="M345.026 352.421C349.348 352.421 352.854 348.915 352.854 344.594C352.854 340.272 349.348 336.766 345.026 336.766C340.705 336.766 337.199 340.272 337.199 344.594C337.199 348.915 340.705 352.421 345.026 352.421Z" fill="#E28539"/>
<path d="M369.568 351.402C373.327 351.402 376.377 348.352 376.377 344.594C376.377 340.835 373.327 337.785 369.568 337.785C365.81 337.785 362.76 340.835 362.76 344.594C362.76 348.352 365.81 351.402 369.568 351.402Z" fill="#E28539"/>
<path d="M394.111 350.309C397.266 350.309 399.827 347.749 399.827 344.593C399.827 341.438 397.266 338.878 394.111 338.878C390.955 338.878 388.395 341.438 388.395 344.593C388.395 347.749 390.955 350.309 394.111 350.309Z" fill="#E28539"/>
<path d="M418.653 349.151C421.173 349.151 423.211 347.113 423.211 344.594C423.211 342.074 421.173 340.036 418.653 340.036C416.134 340.036 414.095 342.074 414.095 344.594C414.095 347.113 416.134 349.151 418.653 349.151Z" fill="#E28539"/>
<path d="M443.196 347.994C445.079 347.994 446.596 346.469 446.596 344.594C446.596 342.71 445.079 341.194 443.196 341.194C441.32 341.194 439.795 342.71 439.795 344.594C439.795 346.469 441.32 347.994 443.196 347.994Z" fill="#E28539"/>
<path d="M467.737 346.836C468.977 346.836 469.988 345.833 469.988 344.594C469.988 343.354 468.977 342.343 467.737 342.343C466.498 342.343 465.495 343.354 465.495 344.594C465.495 345.833 466.498 346.836 467.737 346.836Z" fill="#E28539"/>
<path d="M492.28 345.613C492.843 345.613 493.299 345.156 493.299 344.594C493.299 344.031 492.843 343.574 492.28 343.574C491.717 343.574 491.261 344.031 491.261 344.594C491.261 345.156 491.717 345.613 492.28 345.613Z" fill="#E28539"/>
<path d="M516.822 344.659C516.863 344.659 516.895 344.634 516.895 344.594C516.895 344.553 516.863 344.528 516.822 344.528C516.789 344.528 516.757 344.553 516.757 344.594C516.757 344.634 516.789 344.659 516.822 344.659Z" fill="#E28539"/>
<path d="M1.42686 369.682C1.72854 369.682 1.97316 369.438 1.97316 369.136C1.97316 368.834 1.72854 368.59 1.42686 368.59C1.12518 368.59 0.880554 368.834 0.880554 369.136C0.880554 369.438 1.12518 369.682 1.42686 369.682Z" fill="#E28539"/>
<path d="M25.9692 370.766C26.8743 370.766 27.5999 370.041 27.5999 369.136C27.5999 368.231 26.8743 367.505 25.9692 367.505C25.0642 367.505 24.3385 368.231 24.3385 369.136C24.3385 370.041 25.0642 370.766 25.9692 370.766Z" fill="#E28539"/>
<path d="M50.5114 371.924C52.0525 371.924 53.3 370.677 53.3 369.136C53.3 367.595 52.0525 366.347 50.5114 366.347C48.9704 366.347 47.7229 367.595 47.7229 369.136C47.7229 370.677 48.9704 371.924 50.5114 371.924Z" fill="#E28539"/>
<path d="M75.0536 373.017C77.198 373.017 78.9347 371.28 78.9347 369.136C78.9347 366.992 77.198 365.255 75.0536 365.255C72.9092 365.255 71.1725 366.992 71.1725 369.136C71.1725 371.28 72.9092 373.017 75.0536 373.017Z" fill="#E28539"/>
<path d="M99.5958 374.102C102.344 374.102 104.569 371.876 104.569 369.136C104.569 366.388 102.344 364.17 99.5958 364.17C96.8562 364.17 94.6302 366.388 94.6302 369.136C94.6302 371.876 96.8562 374.102 99.5958 374.102Z" fill="#E28539"/>
<path d="M124.138 375.121C127.448 375.121 130.131 372.446 130.131 369.136C130.131 365.826 127.448 363.151 124.138 363.151C120.836 363.151 118.153 365.826 118.153 369.136C118.153 372.446 120.836 375.121 124.138 375.121Z" fill="#E28539"/>
<path d="M148.68 376.075C152.521 376.075 155.627 372.968 155.627 369.136C155.627 365.304 152.521 362.197 148.68 362.197C144.848 362.197 141.742 365.304 141.742 369.136C141.742 372.968 144.848 376.075 148.68 376.075Z" fill="#E28539"/>
<path d="M173.231 376.898C177.511 376.898 180.985 373.425 180.985 369.136C180.985 364.847 177.511 361.374 173.231 361.374C168.942 361.374 165.468 364.847 165.468 369.136C165.468 373.425 168.942 376.898 173.231 376.898Z" fill="#E28539"/>
<path d="M197.773 377.51C202.396 377.51 206.139 373.759 206.139 369.136C206.139 364.513 202.396 360.762 197.773 360.762C193.15 360.762 189.399 364.513 189.399 369.136C189.399 373.759 193.15 377.51 197.773 377.51Z" fill="#E28539"/>
<path d="M222.315 377.983C227.199 377.983 231.162 374.02 231.162 369.136C231.162 364.252 227.199 360.289 222.315 360.289C217.423 360.289 213.469 364.252 213.469 369.136C213.469 374.02 217.423 377.983 222.315 377.983Z" fill="#E28539"/>
<path d="M246.858 378.186C251.856 378.186 255.908 374.134 255.908 369.136C255.908 364.138 251.856 360.085 246.858 360.085C241.859 360.085 237.807 364.138 237.807 369.136C237.807 374.134 241.859 378.186 246.858 378.186Z" fill="#E28539"/>
<path d="M271.4 378.048C276.325 378.048 280.312 374.061 280.312 369.136C280.312 364.211 276.325 360.224 271.4 360.224C266.475 360.224 262.48 364.211 262.48 369.136C262.48 374.061 266.475 378.048 271.4 378.048Z" fill="#E28539"/>
<path d="M295.942 377.575C300.598 377.575 304.381 373.8 304.381 369.136C304.381 364.472 300.598 360.697 295.942 360.697C291.278 360.697 287.503 364.472 287.503 369.136C287.503 373.8 291.278 377.575 295.942 377.575Z" fill="#E28539"/>
<path d="M320.484 376.963C324.806 376.963 328.312 373.457 328.312 369.136C328.312 364.814 324.806 361.308 320.484 361.308C316.163 361.308 312.657 364.814 312.657 369.136C312.657 373.457 316.163 376.963 320.484 376.963Z" fill="#E28539"/>
<path d="M345.026 376.148C348.899 376.148 352.038 373.009 352.038 369.136C352.038 365.263 348.899 362.124 345.026 362.124C341.153 362.124 338.014 365.263 338.014 369.136C338.014 373.009 341.153 376.148 345.026 376.148Z" fill="#E28539"/>
<path d="M369.569 375.259C372.952 375.259 375.692 372.52 375.692 369.136C375.692 365.752 372.952 363.013 369.569 363.013C366.185 363.013 363.445 365.752 363.445 369.136C363.445 372.52 366.185 375.259 369.569 375.259Z" fill="#E28539"/>
<path d="M394.111 374.24C396.932 374.24 399.215 371.957 399.215 369.136C399.215 366.315 396.932 364.032 394.111 364.032C391.29 364.032 389.007 366.315 389.007 369.136C389.007 371.957 391.29 374.24 394.111 374.24Z" fill="#E28539"/>
<path d="M418.653 373.147C420.871 373.147 422.664 371.354 422.664 369.136C422.664 366.918 420.871 365.124 418.653 365.124C416.435 365.124 414.641 366.918 414.641 369.136C414.641 371.354 416.435 373.147 418.653 373.147Z" fill="#E28539"/>
<path d="M443.196 372.063C444.81 372.063 446.123 370.75 446.123 369.136C446.123 367.521 444.81 366.209 443.196 366.209C441.581 366.209 440.268 367.521 440.268 369.136C440.268 370.75 441.581 372.063 443.196 372.063Z" fill="#E28539"/>
<path d="M467.738 370.905C468.716 370.905 469.507 370.114 469.507 369.136C469.507 368.158 468.716 367.367 467.738 367.367C466.759 367.367 465.968 368.158 465.968 369.136C465.968 370.114 466.759 370.905 467.738 370.905Z" fill="#E28539"/>
<path d="M492.28 369.747C492.622 369.747 492.891 369.47 492.891 369.136C492.891 368.794 492.622 368.524 492.28 368.524C491.946 368.524 491.668 368.794 491.668 369.136C491.668 369.47 491.946 369.747 492.28 369.747Z" fill="#E28539"/>
<path d="M1.42708 393.817C1.50046 393.817 1.56571 393.752 1.56571 393.678C1.56571 393.605 1.50046 393.54 1.42708 393.54C1.3537 393.54 1.28845 393.605 1.28845 393.678C1.28845 393.752 1.3537 393.817 1.42708 393.817Z" fill="#E28539"/>
<path d="M25.9691 394.771C26.5725 394.771 27.0616 394.281 27.0616 393.678C27.0616 393.075 26.5725 392.585 25.9691 392.585C25.3657 392.585 24.8847 393.075 24.8847 393.678C24.8847 394.281 25.3657 394.771 25.9691 394.771Z" fill="#E28539"/>
<path d="M50.5114 395.855C51.7181 395.855 52.6884 394.885 52.6884 393.678C52.6884 392.472 51.7181 391.501 50.5114 391.501C49.3128 391.501 48.3344 392.472 48.3344 393.678C48.3344 394.885 49.3128 395.855 50.5114 395.855Z" fill="#E28539"/>
<path d="M75.0535 396.948C76.8555 396.948 78.3231 395.48 78.3231 393.678C78.3231 391.876 76.8555 390.409 75.0535 390.409C73.2516 390.409 71.7921 391.876 71.7921 393.678C71.7921 395.48 73.2516 396.948 75.0535 396.948Z" fill="#E28539"/>
<path d="M99.5957 397.902C101.928 397.902 103.819 396.01 103.819 393.678C103.819 391.346 101.928 389.463 99.5957 389.463C97.2719 389.463 95.3802 391.346 95.3802 393.678C95.3802 396.01 97.2719 397.902 99.5957 397.902Z" fill="#E28539"/>
<path d="M124.138 398.847C127 398.847 129.316 396.532 129.316 393.678C129.316 390.824 127 388.508 124.138 388.508C121.284 388.508 118.969 390.824 118.969 393.678C118.969 396.532 121.284 398.847 124.138 398.847Z" fill="#E28539"/>
<path d="M148.68 399.671C151.991 399.671 154.673 396.988 154.673 393.678C154.673 390.368 151.991 387.693 148.68 387.693C145.378 387.693 142.696 390.368 142.696 393.678C142.696 396.988 145.378 399.671 148.68 399.671Z" fill="#E28539"/>
<path d="M173.231 400.413C176.949 400.413 179.966 397.396 179.966 393.678C179.966 389.96 176.949 386.943 173.231 386.943C169.505 386.943 166.488 389.96 166.488 393.678C166.488 397.396 169.505 400.413 173.231 400.413Z" fill="#E28539"/>
<path d="M197.773 400.959C201.793 400.959 205.054 397.698 205.054 393.678C205.054 389.658 201.793 386.397 197.773 386.397C193.745 386.397 190.484 389.658 190.484 393.678C190.484 397.698 193.745 400.959 197.773 400.959Z" fill="#E28539"/>
<path d="M222.315 401.367C226.555 401.367 230.004 397.926 230.004 393.678C230.004 389.43 226.555 385.989 222.315 385.989C218.067 385.989 214.618 389.43 214.618 393.678C214.618 397.926 218.067 401.367 222.315 401.367Z" fill="#E28539"/>
<path d="M246.858 401.505C251.179 401.505 254.685 397.999 254.685 393.678C254.685 389.357 251.179 385.851 246.858 385.851C242.536 385.851 239.03 389.357 239.03 393.678C239.03 397.999 242.536 401.505 246.858 401.505Z" fill="#E28539"/>
<path d="M271.4 401.367C275.648 401.367 279.089 397.926 279.089 393.678C279.089 389.43 275.648 385.989 271.4 385.989C267.152 385.989 263.711 389.43 263.711 393.678C263.711 397.926 267.152 401.367 271.4 401.367Z" fill="#E28539"/>
<path d="M295.942 401.024C300.002 401.024 303.288 397.738 303.288 393.678C303.288 389.618 300.002 386.332 295.942 386.332C291.881 386.332 288.587 389.618 288.587 393.678C288.587 397.738 291.881 401.024 295.942 401.024Z" fill="#E28539"/>
<path d="M320.484 400.486C324.243 400.486 327.292 397.437 327.292 393.678C327.292 389.919 324.243 386.87 320.484 386.87C316.725 386.87 313.676 389.919 313.676 393.678C313.676 397.437 316.725 400.486 320.484 400.486Z" fill="#E28539"/>
<path d="M345.026 399.801C348.41 399.801 351.15 397.062 351.15 393.678C351.15 390.294 348.41 387.555 345.026 387.555C341.643 387.555 338.903 390.294 338.903 393.678C338.903 397.062 341.643 399.801 345.026 399.801Z" fill="#E28539"/>
<path d="M369.569 398.921C372.463 398.921 374.811 396.573 374.811 393.678C374.811 390.784 372.463 388.436 369.569 388.436C366.674 388.436 364.326 390.784 364.326 393.678C364.326 396.573 366.674 398.921 369.569 398.921Z" fill="#E28539"/>
<path d="M394.111 398.032C396.516 398.032 398.465 396.083 398.465 393.678C398.465 391.273 396.516 389.324 394.111 389.324C391.705 389.324 389.757 391.273 389.757 393.678C389.757 396.083 391.705 398.032 394.111 398.032Z" fill="#E28539"/>
<path d="M418.653 397.013C420.496 397.013 421.988 395.521 421.988 393.678C421.988 391.835 420.496 390.343 418.653 390.343C416.81 390.343 415.318 391.835 415.318 393.678C415.318 395.521 416.81 397.013 418.653 397.013Z" fill="#E28539"/>
<path d="M443.196 395.994C444.476 395.994 445.511 394.958 445.511 393.678C445.511 392.398 444.476 391.362 443.196 391.362C441.915 391.362 440.88 392.398 440.88 393.678C440.88 394.958 441.915 395.994 443.196 395.994Z" fill="#E28539"/>
<path d="M467.738 394.901C468.414 394.901 468.961 394.355 468.961 393.678C468.961 393.001 468.414 392.455 467.738 392.455C467.061 392.455 466.515 393.001 466.515 393.678C466.515 394.355 467.061 394.901 467.738 394.901Z" fill="#E28539"/>
<path d="M492.28 393.882C492.394 393.882 492.484 393.792 492.484 393.678C492.484 393.564 492.394 393.474 492.28 393.474C492.166 393.474 492.076 393.564 492.076 393.678C492.076 393.792 492.166 393.882 492.28 393.882Z" fill="#E28539"/>
<path d="M25.969 418.698C26.23 418.698 26.4501 418.484 26.4501 418.221C26.4501 417.959 26.23 417.745 25.969 417.745C25.7081 417.745 25.4962 417.959 25.4962 418.221C25.4962 418.484 25.7081 418.698 25.969 418.698Z" fill="#E28539"/>
<path d="M50.5114 419.718C51.3431 419.718 52.0116 419.049 52.0116 418.221C52.0116 417.394 51.3431 416.724 50.5114 416.724C49.6879 416.724 49.0193 417.394 49.0193 418.221C49.0193 419.049 49.6879 419.718 50.5114 419.718Z" fill="#E28539"/>
<path d="M75.0537 420.671C76.4072 420.671 77.5079 419.575 77.5079 418.221C77.5079 416.868 76.4072 415.774 75.0537 415.774C73.7002 415.774 72.6076 416.868 72.6076 418.221C72.6076 419.575 73.7002 420.671 75.0537 420.671Z" fill="#E28539"/>
<path d="M99.5959 421.624C101.479 421.624 103.004 420.1 103.004 418.221C103.004 416.342 101.479 414.82 99.5959 414.82C97.7205 414.82 96.1958 416.342 96.1958 418.221C96.1958 420.1 97.7205 421.624 99.5959 421.624Z" fill="#E28539"/>
<path d="M124.138 422.441C126.47 422.441 128.362 420.552 128.362 418.221C128.362 415.888 126.47 414.005 124.138 414.005C121.814 414.005 119.923 415.888 119.923 418.221C119.923 420.552 121.814 422.441 124.138 422.441Z" fill="#E28539"/>
<path d="M148.68 423.258C151.469 423.258 153.719 421.003 153.719 418.221C153.719 415.44 151.469 413.181 148.68 413.181C145.9 413.181 143.65 415.44 143.65 418.221C143.65 421.003 145.9 423.258 148.68 423.258Z" fill="#E28539"/>
<path d="M173.231 423.87C176.345 423.87 178.873 421.341 178.873 418.221C178.873 415.098 176.345 412.57 173.231 412.57C170.108 412.57 167.58 415.098 167.58 418.221C167.58 421.341 170.108 423.87 173.231 423.87Z" fill="#E28539"/>
<path d="M197.773 424.346C201.149 424.346 203.896 421.604 203.896 418.221C203.896 414.836 201.149 412.097 197.773 412.097C194.389 412.097 191.641 414.836 191.641 418.221C191.641 421.604 194.389 424.346 197.773 424.346Z" fill="#E28539"/>
<path d="M222.315 424.687C225.886 424.687 228.781 421.792 228.781 418.221C228.781 414.649 225.886 411.755 222.315 411.755C218.744 411.755 215.849 414.649 215.849 418.221C215.849 421.792 218.744 424.687 222.315 424.687Z" fill="#E28539"/>
<path d="M246.858 424.755C250.461 424.755 253.389 421.83 253.389 418.221C253.389 414.616 250.461 411.689 246.858 411.689C243.246 411.689 240.318 414.616 240.318 418.221C240.318 421.83 243.246 424.755 246.858 424.755Z" fill="#E28539"/>
<path d="M271.4 424.687C274.971 424.687 277.865 421.792 277.865 418.221C277.865 414.649 274.971 411.755 271.4 411.755C267.829 411.755 264.934 414.649 264.934 418.221C264.934 421.792 267.829 424.687 271.4 424.687Z" fill="#E28539"/>
<path d="M295.942 424.415C299.358 424.415 302.13 421.642 302.13 418.221C302.13 414.804 299.358 412.032 295.942 412.032C292.517 412.032 289.745 414.804 289.745 418.221C289.745 421.642 292.517 424.415 295.942 424.415Z" fill="#E28539"/>
<path d="M320.484 423.939C323.64 423.939 326.2 421.379 326.2 418.221C326.2 415.065 323.64 412.505 320.484 412.505C317.329 412.505 314.768 415.065 314.768 418.221C314.768 421.379 317.329 423.939 320.484 423.939Z" fill="#E28539"/>
<path d="M345.027 423.326C347.848 423.326 350.131 421.041 350.131 418.221C350.131 415.399 347.848 413.116 345.027 413.116C342.205 413.116 339.922 415.399 339.922 418.221C339.922 421.041 342.205 423.326 345.027 423.326Z" fill="#E28539"/>
<path d="M369.569 422.577C371.974 422.577 373.923 420.627 373.923 418.221C373.923 415.815 371.974 413.867 369.569 413.867C367.163 413.867 365.215 415.815 365.215 418.221C365.215 420.627 367.163 422.577 369.569 422.577Z" fill="#E28539"/>
<path d="M394.111 421.692C396.027 421.692 397.584 420.139 397.584 418.221C397.584 416.304 396.027 414.747 394.111 414.747C392.195 414.747 390.637 416.304 390.637 418.221C390.637 420.139 392.195 421.692 394.111 421.692Z" fill="#E28539"/>
<path d="M418.653 420.807C420.08 420.807 421.238 419.649 421.238 418.221C421.238 416.792 420.08 415.635 418.653 415.635C417.226 415.635 416.068 416.792 416.068 418.221C416.068 419.649 417.226 420.807 418.653 420.807Z" fill="#E28539"/>
<path d="M443.196 419.787C444.06 419.787 444.761 419.086 444.761 418.221C444.761 417.357 444.06 416.656 443.196 416.656C442.331 416.656 441.63 417.357 441.63 418.221C441.63 419.086 442.331 419.787 443.196 419.787Z" fill="#E28539"/>
<path d="M467.738 418.833C468.08 418.833 468.349 418.559 468.349 418.221C468.349 417.883 468.08 417.609 467.738 417.609C467.403 417.609 467.126 417.883 467.126 418.221C467.126 418.559 467.403 418.833 467.738 418.833Z" fill="#E28539"/>
<path d="M25.969 442.833C26.0098 442.833 26.0342 442.802 26.0342 442.764C26.0342 442.727 26.0098 442.696 25.969 442.696C25.9364 442.696 25.9038 442.727 25.9038 442.764C25.9038 442.802 25.9364 442.833 25.969 442.833Z" fill="#E28539"/>
<path d="M50.5115 443.445C50.8866 443.445 51.1964 443.14 51.1964 442.764C51.1964 442.388 50.8866 442.083 50.5115 442.083C50.1364 442.083 49.8348 442.388 49.8348 442.764C49.8348 443.14 50.1364 443.445 50.5115 443.445Z" fill="#E28539"/>
<path d="M75.0537 444.397C75.9587 444.397 76.6925 443.666 76.6925 442.764C76.6925 441.862 75.9587 441.131 75.0537 441.131C74.1568 441.131 73.423 441.862 73.423 442.764C73.423 443.666 74.1568 444.397 75.0537 444.397Z" fill="#E28539"/>
<path d="M99.5958 445.282C100.99 445.282 102.115 444.154 102.115 442.764C102.115 441.374 100.99 440.246 99.5958 440.246C98.2097 440.246 97.0763 441.374 97.0763 442.764C97.0763 444.154 98.2097 445.282 99.5958 445.282Z" fill="#E28539"/>
<path d="M124.138 446.031C125.948 446.031 127.408 444.569 127.408 442.764C127.408 440.96 125.948 439.497 124.138 439.497C122.336 439.497 120.877 440.96 120.877 442.764C120.877 444.569 122.336 446.031 124.138 446.031Z" fill="#E28539"/>
<path d="M148.68 446.712C150.866 446.712 152.635 444.945 152.635 442.764C152.635 440.584 150.866 438.817 148.68 438.817C146.503 438.817 144.734 440.584 144.734 442.764C144.734 444.945 146.503 446.712 148.68 446.712Z" fill="#E28539"/>
<path d="M173.231 447.256C175.709 447.256 177.715 445.245 177.715 442.764C177.715 440.284 175.709 438.272 173.231 438.272C170.744 438.272 168.738 440.284 168.738 442.764C168.738 445.245 170.744 447.256 173.231 447.256Z" fill="#E28539"/>
<path d="M197.773 447.732C200.513 447.732 202.738 445.508 202.738 442.764C202.738 440.02 200.513 437.796 197.773 437.796C195.025 437.796 192.799 440.02 192.799 442.764C192.799 445.508 195.025 447.732 197.773 447.732Z" fill="#E28539"/>
<path d="M222.315 448.004C225.21 448.004 227.55 445.659 227.55 442.764C227.55 439.87 225.21 437.524 222.315 437.524C219.421 437.524 217.072 439.87 217.072 442.764C217.072 445.659 219.421 448.004 222.315 448.004Z" fill="#E28539"/>
<path d="M246.858 448.073C249.785 448.073 252.165 445.696 252.165 442.764C252.165 439.832 249.785 437.455 246.858 437.455C243.922 437.455 241.549 439.832 241.549 442.764C241.549 445.696 243.922 448.073 246.858 448.073Z" fill="#E28539"/>
<path d="M271.4 448.004C274.294 448.004 276.634 445.659 276.634 442.764C276.634 439.87 274.294 437.524 271.4 437.524C268.505 437.524 266.157 439.87 266.157 442.764C266.157 445.659 268.505 448.004 271.4 448.004Z" fill="#E28539"/>
<path d="M295.942 447.732C298.682 447.732 300.907 445.508 300.907 442.764C300.907 440.02 298.682 437.796 295.942 437.796C293.194 437.796 290.968 440.02 290.968 442.764C290.968 445.508 293.194 447.732 295.942 447.732Z" fill="#E28539"/>
<path d="M320.484 447.324C323.004 447.324 325.042 445.283 325.042 442.764C325.042 440.246 323.004 438.205 320.484 438.205C317.965 438.205 315.926 440.246 315.926 442.764C315.926 445.283 317.965 447.324 320.484 447.324Z" fill="#E28539"/>
<path d="M345.026 446.779C347.244 446.779 349.038 444.982 349.038 442.764C349.038 440.546 347.244 438.749 345.026 438.749C342.809 438.749 341.007 440.546 341.007 442.764C341.007 444.982 342.809 446.779 345.026 446.779Z" fill="#E28539"/>
<path d="M369.569 446.099C371.411 446.099 372.903 444.606 372.903 442.764C372.903 440.922 371.411 439.429 369.569 439.429C367.726 439.429 366.234 440.922 366.234 442.764C366.234 444.606 367.726 446.099 369.569 446.099Z" fill="#E28539"/>
<path d="M394.111 445.35C395.538 445.35 396.696 444.193 396.696 442.764C396.696 441.336 395.538 440.178 394.111 440.178C392.684 440.178 391.526 441.336 391.526 442.764C391.526 444.193 392.684 445.35 394.111 445.35Z" fill="#E28539"/>
<path d="M418.653 444.466C419.591 444.466 420.357 443.704 420.357 442.764C420.357 441.824 419.591 441.063 418.653 441.063C417.715 441.063 416.949 441.824 416.949 442.764C416.949 443.704 417.715 444.466 418.653 444.466Z" fill="#E28539"/>
<path d="M443.195 443.581C443.644 443.581 444.011 443.215 444.011 442.764C444.011 442.313 443.644 441.947 443.195 441.947C442.747 441.947 442.38 442.313 442.38 442.764C442.38 443.215 442.747 443.581 443.195 443.581Z" fill="#E28539"/>
<path d="M467.738 442.833C467.778 442.833 467.811 442.802 467.811 442.764C467.811 442.727 467.778 442.696 467.738 442.696C467.705 442.696 467.672 442.727 467.672 442.764C467.672 442.802 467.705 442.833 467.738 442.833Z" fill="#E28539"/>
<path d="M50.5115 467.375C50.5523 467.375 50.5848 467.345 50.5848 467.307C50.5848 467.27 50.5523 467.239 50.5115 467.239C50.4789 467.239 50.4463 467.27 50.4463 467.307C50.4463 467.345 50.4789 467.375 50.5115 467.375Z" fill="#E28539"/>
<path d="M75.0537 468.055C75.4695 468.055 75.8038 467.721 75.8038 467.306C75.8038 466.894 75.4695 466.558 75.0537 466.558C74.646 466.558 74.3035 466.894 74.3035 467.306C74.3035 467.721 74.646 468.055 75.0537 468.055Z" fill="#E28539"/>
<path d="M99.5958 468.804C100.428 468.804 101.096 468.134 101.096 467.307C101.096 466.48 100.428 465.81 99.5958 465.81C98.7723 465.81 98.1038 466.48 98.1038 467.307C98.1038 468.134 98.7723 468.804 99.5958 468.804Z" fill="#E28539"/>
<path d="M124.138 469.553C125.378 469.553 126.389 468.547 126.389 467.306C126.389 466.066 125.378 465.061 124.138 465.061C122.899 465.061 121.896 466.066 121.896 467.306C121.896 468.547 122.899 469.553 124.138 469.553Z" fill="#E28539"/>
<path d="M148.68 470.165C150.262 470.165 151.542 468.886 151.542 467.306C151.542 465.728 150.262 464.449 148.68 464.449C147.107 464.449 145.827 465.728 145.827 467.306C145.827 468.886 147.107 470.165 148.68 470.165Z" fill="#E28539"/>
<path d="M173.231 470.642C175.065 470.642 176.557 469.148 176.557 467.306C176.557 465.465 175.065 463.972 173.231 463.972C171.388 463.972 169.888 465.465 169.888 467.306C169.888 469.148 171.388 470.642 173.231 470.642Z" fill="#E28539"/>
<path d="M197.773 471.05C199.836 471.05 201.515 469.374 201.515 467.306C201.515 465.239 199.836 463.564 197.773 463.564C195.702 463.564 194.022 465.239 194.022 467.306C194.022 469.374 195.702 471.05 197.773 471.05Z" fill="#E28539"/>
<path d="M222.315 471.322C224.533 471.322 226.327 469.524 226.327 467.307C226.327 465.09 224.533 463.292 222.315 463.292C220.097 463.292 218.295 465.09 218.295 467.307C218.295 469.524 220.097 471.322 222.315 471.322Z" fill="#E28539"/>
<path d="M246.857 471.391C249.108 471.391 250.934 469.562 250.934 467.306C250.934 465.052 249.108 463.223 246.857 463.223C244.599 463.223 242.772 465.052 242.772 467.306C242.772 469.562 244.599 471.391 246.857 471.391Z" fill="#E28539"/>
<path d="M271.4 471.322C273.618 471.322 275.411 469.524 275.411 467.307C275.411 465.09 273.618 463.292 271.4 463.292C269.182 463.292 267.38 465.09 267.38 467.307C267.38 469.524 269.182 471.322 271.4 471.322Z" fill="#E28539"/>
<path d="M295.942 471.05C298.005 471.05 299.684 469.374 299.684 467.306C299.684 465.239 298.005 463.564 295.942 463.564C293.871 463.564 292.199 465.239 292.199 467.306C292.199 469.374 293.871 471.05 295.942 471.05Z" fill="#E28539"/>
<path d="M320.484 470.71C322.36 470.71 323.884 469.186 323.884 467.306C323.884 465.428 322.36 463.904 320.484 463.904C318.601 463.904 317.076 465.428 317.076 467.306C317.076 469.186 318.601 470.71 320.484 470.71Z" fill="#E28539"/>
<path d="M345.026 470.233C346.641 470.233 347.953 468.923 347.953 467.307C347.953 465.691 346.641 464.38 345.026 464.38C343.412 464.38 342.099 465.691 342.099 467.307C342.099 468.923 343.412 470.233 345.026 470.233Z" fill="#E28539"/>
<path d="M369.569 469.62C370.849 469.62 371.884 468.585 371.884 467.306C371.884 466.029 370.849 464.992 369.569 464.992C368.289 464.992 367.253 466.029 367.253 467.306C367.253 468.585 368.289 469.62 369.569 469.62Z" fill="#E28539"/>
<path d="M394.111 468.872C394.975 468.872 395.676 468.172 395.676 467.306C395.676 466.442 394.975 465.742 394.111 465.742C393.246 465.742 392.545 466.442 392.545 467.306C392.545 468.172 393.246 468.872 394.111 468.872Z" fill="#E28539"/>
<path d="M418.653 468.124C419.102 468.124 419.469 467.758 419.469 467.306C419.469 466.856 419.102 466.49 418.653 466.49C418.205 466.49 417.838 466.856 417.838 467.306C417.838 467.758 418.205 468.124 418.653 468.124Z" fill="#E28539"/>
<path d="M443.195 467.443C443.269 467.443 443.334 467.382 443.334 467.306C443.334 467.231 443.269 467.171 443.195 467.171C443.122 467.171 443.057 467.231 443.057 467.306C443.057 467.382 443.122 467.443 443.195 467.443Z" fill="#E28539"/>
<path d="M75.0537 491.918C75.0945 491.918 75.1271 491.887 75.1271 491.85C75.1271 491.812 75.0945 491.782 75.0537 491.782C75.0211 491.782 74.9885 491.812 74.9885 491.85C74.9885 491.887 75.0211 491.918 75.0537 491.918Z" fill="#E28539"/>
<path d="M99.596 492.394C99.8977 492.394 100.142 492.15 100.142 491.849C100.142 491.549 99.8977 491.306 99.596 491.306C99.2943 491.306 99.0578 491.549 99.0578 491.849C99.0578 492.15 99.2943 492.394 99.596 492.394Z" fill="#E28539"/>
<path d="M124.138 493.007C124.782 493.007 125.296 492.489 125.296 491.85C125.296 491.21 124.782 490.693 124.138 490.693C123.502 490.693 122.98 491.21 122.98 491.85C122.98 492.489 123.502 493.007 124.138 493.007Z" fill="#E28539"/>
<path d="M148.68 493.551C149.626 493.551 150.384 492.79 150.384 491.85C150.384 490.91 149.626 490.148 148.68 490.148C147.743 490.148 146.984 490.91 146.984 491.85C146.984 492.79 147.743 493.551 148.68 493.551Z" fill="#E28539"/>
<path d="M173.231 494.027C174.429 494.027 175.408 493.052 175.408 491.85C175.408 490.647 174.429 489.672 173.231 489.672C172.024 489.672 171.045 490.647 171.045 491.85C171.045 493.052 172.024 494.027 173.231 494.027Z" fill="#E28539"/>
<path d="M197.773 494.367C199.159 494.367 200.284 493.241 200.284 491.85C200.284 490.459 199.159 489.332 197.773 489.332C196.379 489.332 195.254 490.459 195.254 491.85C195.254 493.241 196.379 494.367 197.773 494.367Z" fill="#E28539"/>
<path d="M222.315 494.572C223.815 494.572 225.03 493.353 225.03 491.85C225.03 490.346 223.815 489.128 222.315 489.128C220.807 489.128 219.592 490.346 219.592 491.85C219.592 493.353 220.807 494.572 222.315 494.572Z" fill="#E28539"/>
<path d="M246.858 494.64C248.399 494.64 249.646 493.391 249.646 491.85C249.646 490.309 248.399 489.059 246.858 489.059C245.317 489.059 244.061 490.309 244.061 491.85C244.061 493.391 245.317 494.64 246.858 494.64Z" fill="#E28539"/>
<path d="M271.4 494.64C272.941 494.64 274.188 493.391 274.188 491.85C274.188 490.309 272.941 489.059 271.4 489.059C269.859 489.059 268.603 490.309 268.603 491.85C268.603 493.391 269.859 494.64 271.4 494.64Z" fill="#E28539"/>
<path d="M295.942 494.436C297.369 494.436 298.527 493.278 298.527 491.85C298.527 490.421 297.369 489.263 295.942 489.263C294.515 489.263 293.357 490.421 293.357 491.85C293.357 493.278 294.515 494.436 295.942 494.436Z" fill="#E28539"/>
<path d="M320.484 494.096C321.723 494.096 322.726 493.09 322.726 491.849C322.726 490.609 321.723 489.604 320.484 489.604C319.245 489.604 318.234 490.609 318.234 491.849C318.234 493.09 319.245 494.096 320.484 494.096Z" fill="#E28539"/>
<path d="M345.026 493.62C346.005 493.62 346.796 492.827 346.796 491.85C346.796 490.872 346.005 490.08 345.026 490.08C344.048 490.08 343.257 490.872 343.257 491.85C343.257 492.827 344.048 493.62 345.026 493.62Z" fill="#E28539"/>
<path d="M369.569 493.074C370.246 493.074 370.792 492.526 370.792 491.85C370.792 491.174 370.246 490.625 369.569 490.625C368.892 490.625 368.346 491.174 368.346 491.85C368.346 492.526 368.892 493.074 369.569 493.074Z" fill="#E28539"/>
<path d="M394.111 492.462C394.445 492.462 394.722 492.188 394.722 491.849C394.722 491.511 394.445 491.237 394.111 491.237C393.776 491.237 393.499 491.511 393.499 491.849C393.499 492.188 393.776 492.462 394.111 492.462Z" fill="#E28539"/>
<path d="M418.653 491.918C418.694 491.918 418.718 491.887 418.718 491.85C418.718 491.812 418.694 491.782 418.653 491.782C418.612 491.782 418.588 491.812 418.588 491.85C418.588 491.887 418.612 491.918 418.653 491.918Z" fill="#E28539"/>
<path d="M124.138 516.596C124.252 516.596 124.342 516.505 124.342 516.392C124.342 516.279 124.252 516.188 124.138 516.188C124.032 516.188 123.934 516.279 123.934 516.392C123.934 516.505 124.032 516.596 124.138 516.596Z" fill="#E28539"/>
<path d="M148.68 517.005C149.023 517.005 149.3 516.731 149.3 516.392C149.3 516.054 149.023 515.78 148.68 515.78C148.346 515.78 148.069 516.054 148.069 516.392C148.069 516.731 148.346 517.005 148.68 517.005Z" fill="#E28539"/>
<path d="M173.231 517.413C173.793 517.413 174.25 516.956 174.25 516.392C174.25 515.829 173.793 515.372 173.231 515.372C172.66 515.372 172.203 515.829 172.203 516.392C172.203 516.956 172.66 517.413 173.231 517.413Z" fill="#E28539"/>
<path d="M197.773 517.686C198.482 517.686 199.061 517.106 199.061 516.392C199.061 515.678 198.482 515.1 197.773 515.1C197.055 515.1 196.477 515.678 196.477 516.392C196.477 517.106 197.055 517.686 197.773 517.686Z" fill="#E28539"/>
<path d="M222.315 517.89C223.139 517.89 223.807 517.22 223.807 516.392C223.807 515.566 223.139 514.895 222.315 514.895C221.483 514.895 220.815 515.566 220.815 516.392C220.815 517.22 221.483 517.89 222.315 517.89Z" fill="#E28539"/>
<path d="M246.858 517.957C247.722 517.957 248.423 517.257 248.423 516.392C248.423 515.527 247.722 514.827 246.858 514.827C245.993 514.827 245.292 515.527 245.292 516.392C245.292 517.257 245.993 517.957 246.858 517.957Z" fill="#E28539"/>
<path d="M271.4 517.89C272.223 517.89 272.892 517.22 272.892 516.392C272.892 515.566 272.223 514.895 271.4 514.895C270.568 514.895 269.899 515.566 269.899 516.392C269.899 517.22 270.568 517.89 271.4 517.89Z" fill="#E28539"/>
<path d="M295.942 517.754C296.692 517.754 297.304 517.144 297.304 516.392C297.304 515.641 296.692 515.031 295.942 515.031C295.192 515.031 294.58 515.641 294.58 516.392C294.58 517.144 295.192 517.754 295.942 517.754Z" fill="#E28539"/>
<path d="M320.484 517.413C321.047 517.413 321.503 516.956 321.503 516.392C321.503 515.829 321.047 515.372 320.484 515.372C319.922 515.372 319.465 515.829 319.465 516.392C319.465 516.956 319.922 517.413 320.484 517.413Z" fill="#E28539"/>
<path d="M345.026 517.005C345.361 517.005 345.638 516.731 345.638 516.392C345.638 516.054 345.361 515.78 345.026 515.78C344.684 515.78 344.415 516.054 344.415 516.392C344.415 516.731 344.684 517.005 345.026 517.005Z" fill="#E28539"/>
<path d="M369.569 516.596C369.683 516.596 369.773 516.505 369.773 516.392C369.773 516.279 369.683 516.188 369.569 516.188C369.455 516.188 369.365 516.279 369.365 516.392C369.365 516.505 369.455 516.596 369.569 516.596Z" fill="#E28539"/>
<path d="M173.231 541.004C173.263 541.004 173.296 540.973 173.296 540.935C173.296 540.898 173.263 540.867 173.231 540.867C173.19 540.867 173.157 540.898 173.157 540.935C173.157 540.973 173.19 541.004 173.231 541.004Z" fill="#E28539"/>
<path d="M197.773 541.14C197.879 541.14 197.977 541.048 197.977 540.935C197.977 540.822 197.879 540.731 197.773 540.731C197.659 540.731 197.561 540.822 197.561 540.935C197.561 541.048 197.659 541.14 197.773 541.14Z" fill="#E28539"/>
<path d="M222.315 541.275C222.503 541.275 222.65 541.123 222.65 540.935C222.65 540.747 222.503 540.595 222.315 540.595C222.128 540.595 221.973 540.747 221.973 540.935C221.973 541.123 222.128 541.275 222.315 541.275Z" fill="#E28539"/>
<path d="M246.858 541.275C247.045 541.275 247.192 541.123 247.192 540.935C247.192 540.747 247.045 540.595 246.858 540.595C246.67 540.595 246.515 540.747 246.515 540.935C246.515 541.123 246.67 541.275 246.858 541.275Z" fill="#E28539"/>
<path d="M271.4 541.275C271.587 541.275 271.734 541.123 271.734 540.935C271.734 540.747 271.587 540.595 271.4 540.595C271.212 540.595 271.057 540.747 271.057 540.935C271.057 541.123 271.212 541.275 271.4 541.275Z" fill="#E28539"/>
<path d="M295.942 541.14C296.056 541.14 296.146 541.048 296.146 540.935C296.146 540.822 296.056 540.731 295.942 540.731C295.828 540.731 295.738 540.822 295.738 540.935C295.738 541.048 295.828 541.14 295.942 541.14Z" fill="#E28539"/>
<path d="M320.484 541.004C320.517 541.004 320.549 540.973 320.549 540.935C320.549 540.898 320.517 540.867 320.484 540.867C320.444 540.867 320.411 540.898 320.411 540.935C320.411 540.973 320.444 541.004 320.484 541.004Z" fill="#E28539"/>
<path d="M526.826 172.888C526.875 172.888 526.916 172.847 526.916 172.79C526.916 172.741 526.875 172.7 526.826 172.7C526.769 172.7 526.737 172.741 526.737 172.79C526.737 172.847 526.769 172.888 526.826 172.888Z" fill="#E28539"/>
<path d="M526.826 205.787C526.973 205.787 527.095 205.665 527.095 205.518C527.095 205.363 526.973 205.249 526.826 205.249C526.671 205.249 526.549 205.363 526.549 205.518C526.549 205.665 526.671 205.787 526.826 205.787Z" fill="#E28539"/>
<path d="M526.827 238.695C527.071 238.695 527.275 238.491 527.275 238.239C527.275 237.994 527.071 237.79 526.827 237.79C526.574 237.79 526.37 237.994 526.37 238.239C526.37 238.491 526.574 238.695 526.827 238.695Z" fill="#E28539"/>
<path d="M526.827 271.505C527.128 271.505 527.365 271.269 527.365 270.967C527.365 270.665 527.128 270.421 526.827 270.421C526.525 270.421 526.28 270.665 526.28 270.967C526.28 271.269 526.525 271.505 526.827 271.505Z" fill="#E28539"/>
<path d="M526.827 304.144C527.071 304.144 527.275 303.94 527.275 303.687C527.275 303.434 527.071 303.239 526.827 303.239C526.574 303.239 526.37 303.434 526.37 303.687C526.37 303.94 526.574 304.144 526.827 304.144Z" fill="#E28539"/>
<path d="M526.826 336.685C526.973 336.685 527.095 336.562 527.095 336.416C527.095 336.261 526.973 336.138 526.826 336.138C526.671 336.138 526.549 336.261 526.549 336.416C526.549 336.562 526.671 336.685 526.826 336.685Z" fill="#E28539"/>
<path d="M526.826 369.225C526.875 369.225 526.916 369.185 526.916 369.136C526.916 369.087 526.875 369.046 526.826 369.046C526.769 369.046 526.737 369.087 526.737 369.136C526.737 369.185 526.769 369.225 526.826 369.225Z" fill="#E28539"/>
</g>
</svg>
