<svg width="24" height="24" viewBox="0 0 24 24" fill="none" xmlns="http://www.w3.org/2000/svg">
<path d="M21.6383 3.13547L20.8102 2.41532C19.355 1.14985 17.5357 0.5 15.6875 0.5H8.31248C4.0051 0.5 0.5 4.0051 0.5 8.31248V15.6875C0.5 19.9949 4.0051 23.5 8.31248 23.5H15.6875C19.9949 23.5 23.5 19.9949 23.5 15.6875V12C23.5 11.7584 23.3041 11.5625 23.0625 11.5625C22.8209 11.5625 22.625 11.7584 22.625 12V15.6875C22.625 19.5133 19.5133 22.625 15.6875 22.625H8.31248C4.48669 22.625 1.375 19.5133 1.375 15.6875V8.31248C1.375 4.48669 4.48669 1.375 8.31248 1.375H15.6875C17.5058 1.375 19.2311 2.0958 20.5088 3.32755L21.4008 4.18752H20.1618H18.3883C18.1467 4.18752 17.9508 4.38338 17.9508 4.62502C17.9508 4.86663 18.1466 5.06248 18.3882 5.06252L21.6383 3.13547ZM21.6383 3.13547V2.03803M21.6383 3.13547V2.03803M21.6383 2.03803V0.9375M21.6383 2.03803V0.9375M22.125 5.05943C22.1247 5.05948 22.1248 5.05954 22.1248 5.05961C22.1256 5.06036 22.1275 5.06222 21.6996 5.06257C21.4877 5.06274 21.1741 5.06269 20.7056 5.0626C20.1658 5.06251 19.4205 5.06238 18.3883 5.06252L22.125 5.05943ZM22.125 5.05943C22.3455 5.03475 22.5133 4.84447 22.5133 4.62502M22.125 5.05943L22.5133 4.62502M12.4375 11.8188V11.6117V6.46875C12.4375 6.22711 12.2416 6.03125 12 6.03125C11.7584 6.03125 11.5625 6.22711 11.5625 6.46875V12C11.5625 12.1161 11.6086 12.2273 11.6906 12.3094C11.6906 12.3094 11.6906 12.3094 11.6906 12.3094L15.3781 15.9969C15.5489 16.1677 15.826 16.1678 15.9968 15.9969C15.9969 15.9969 15.9969 15.9969 15.9969 15.9969M12.4375 11.8188L15.9969 15.9969M12.4375 11.8188L12.5839 11.9652L15.9969 15.3782C16.1677 15.549 16.1677 15.826 15.9969 15.9969M12.4375 11.8188L15.9969 15.9969M21.6383 0.9375C21.6383 0.695861 21.8342 0.5 22.0758 0.5M21.6383 0.9375L22.0758 0.5M22.0758 0.5C22.3175 0.5 22.5133 0.695861 22.5133 0.9375M22.0758 0.5L22.5133 0.9375M22.5133 0.9375V4.62502M22.5133 0.9375V4.62502" fill="#E28539" stroke="#E28539"/>
</svg>
