<svg width="35" height="35" viewBox="0 0 35 35" fill="none" xmlns="http://www.w3.org/2000/svg">
<path d="M16.6875 4.4375C16.6875 4.88604 17.0515 5.25 17.5 5.25C17.9485 5.25 18.3125 4.88604 18.3125 4.4375V1.6875C18.3125 1.23896 17.9485 0.875 17.5 0.875C17.0515 0.875 16.6875 1.23896 16.6875 1.6875V4.4375Z" fill="#E28539" stroke="#E28539" stroke-width="0.25"/>
<path d="M26.1621 8.83788L26.1626 8.83833C26.3215 8.99559 26.5294 9.07524 26.7373 9.07524C26.9451 9.07524 27.1533 8.99565 27.311 8.83788L29.2553 6.89363C29.5722 6.57669 29.5722 6.06166 29.2553 5.74472C28.9384 5.42778 28.4233 5.42778 28.1064 5.74472L26.1621 7.68897C25.8452 8.00591 25.8452 8.52094 26.1621 8.83788Z" fill="#E28539" stroke="#E28539" stroke-width="0.25"/>
<path d="M30.5625 18.3125H33.3125C33.761 18.3125 34.125 17.9485 34.125 17.5C34.125 17.0515 33.761 16.6875 33.3125 16.6875H30.5625C30.114 16.6875 29.75 17.0515 29.75 17.5C29.75 17.9485 30.114 18.3125 30.5625 18.3125Z" fill="#E28539" stroke="#E28539" stroke-width="0.25"/>
<path d="M28.1064 29.2566L28.1068 29.2571C28.2657 29.4143 28.4736 29.494 28.6815 29.494C28.8893 29.494 29.0975 29.4144 29.2553 29.2566C29.5722 28.9397 29.5722 28.4247 29.2553 28.1077L27.311 26.1635C26.9941 25.8465 26.4791 25.8465 26.1621 26.1635C25.8452 26.4804 25.8452 26.9954 26.1621 27.3124L28.1064 29.2566Z" fill="#E28539" stroke="#E28539" stroke-width="0.25"/>
<path d="M16.6875 33.3125C16.6875 33.761 17.0515 34.125 17.5 34.125C17.9485 34.125 18.3125 33.761 18.3125 33.3125V30.5625C18.3125 30.114 17.9485 29.75 17.5 29.75C17.0515 29.75 16.6875 30.114 16.6875 30.5625V33.3125Z" fill="#E28539" stroke="#E28539" stroke-width="0.25"/>
<path d="M5.74344 29.2566L5.7439 29.2571C5.90278 29.4143 6.11069 29.494 6.31858 29.494C6.52636 29.494 6.73457 29.4144 6.89234 29.2566L8.83659 27.3124C9.15354 26.9954 9.15354 26.4804 8.83659 26.1635C8.51965 25.8465 8.00463 25.8465 7.68769 26.1635L5.74344 28.1077C5.4265 28.4247 5.4265 28.9397 5.74344 29.2566Z" fill="#E28539" stroke="#E28539" stroke-width="0.25"/>
<path d="M1.6875 18.3125H4.4375C4.88604 18.3125 5.25 17.9485 5.25 17.5C5.25 17.0515 4.88604 16.6875 4.4375 16.6875H1.6875C1.23896 16.6875 0.875 17.0515 0.875 17.5C0.875 17.9485 1.23896 18.3125 1.6875 18.3125Z" fill="#E28539" stroke="#E28539" stroke-width="0.25"/>
<path d="M7.68763 8.83785L7.68811 8.83833C7.84699 8.99559 8.0549 9.07524 8.2628 9.07524C8.47069 9.07524 8.6786 8.99559 8.83748 8.83833L8.83794 8.83788C9.15488 8.52094 9.15488 8.00591 8.83794 7.68897L6.89369 5.74472C6.57675 5.42778 6.06173 5.42778 5.74479 5.74472C5.42786 6.06165 5.42784 6.57665 5.74475 6.89359C5.74476 6.89361 5.74478 6.89362 5.74479 6.89363L7.68763 8.83784L7.68763 8.83785Z" fill="#E28539" stroke="#E28539" stroke-width="0.25"/>
<path d="M15.2547 28.5749L15.2534 28.5745C14.8981 28.4414 14.6816 28.0809 14.732 27.7066C14.732 27.7066 14.732 27.7065 14.732 27.7064L15.8861 19H11.3125C11.0052 19 10.7243 18.8261 10.5862 18.5517C10.448 18.2768 10.4774 17.9469 10.6625 17.7L18.9124 6.70019L15.2547 28.5749ZM15.2547 28.5749C15.348 28.6087 15.4422 28.625 15.5379 28.625C15.8041 28.625 16.0624 28.4936 16.2168 28.2612L16.2171 28.2608L24.3667 15.8858L24.3673 15.8848C24.5291 15.634 24.5441 15.3159 24.4027 15.0525C24.2612 14.7892 23.9865 14.625 23.6875 14.625H19.1464L15.2547 28.5749ZM17.567 15.9625L17.567 15.9626C17.7228 16.1459 17.9487 16.25 18.1875 16.25H22.1796L16.8087 24.4063L17.6184 18.2947C17.6184 18.2947 17.6184 18.2947 17.6184 18.2947C17.6493 18.0625 17.578 17.8267 17.423 17.6522L17.3295 17.7351L17.4234 17.6526C17.2695 17.4777 17.0486 17.375 16.8125 17.375H12.9375L18.2137 10.3401L17.3865 15.3034C17.3865 15.3035 17.3864 15.3037 17.3864 15.3038C17.3458 15.5386 17.4127 15.7806 17.567 15.9625Z" fill="#E28539" stroke="#E28539" stroke-width="0.25"/>
</svg>
