<svg width="22" height="37" viewBox="0 0 22 37" fill="none" xmlns="http://www.w3.org/2000/svg">
<path d="M20.0456 16.1463C20.0205 16.0495 19.9744 15.9567 19.913 15.8777C19.5231 15.1022 19.037 14.2691 18.4338 13.3695C18.1579 12.958 17.913 12.5185 17.7061 12.0634C17.3143 11.2013 15.9685 11.8094 16.361 12.6727C16.6012 13.2011 16.8856 13.7115 17.2062 14.1898C17.6286 14.8197 17.9883 15.409 18.2943 15.9633C13.3318 17.9614 7.21175 18.836 2.20479 16.4535C3.58639 13.3673 4.93268 9.00911 4.23247 4.68161C3.77206 1.8363 2.63729 0.344073 2.58921 0.281962C2.00982 -0.466848 0.837159 0.429966 1.4181 1.18055C1.42792 1.19347 2.40538 2.50705 2.79083 5.02157C3.43979 9.25438 1.94446 13.5789 0.574607 16.4631C0.457843 16.7013 -0.360611 18.5619 0.186798 22.8684C0.596172 26.0888 1.59897 29.2217 3.16741 32.1802C4.70875 35.0877 4.90897 36.0442 4.92345 36.3205C4.97323 37.2662 6.44898 37.2035 6.39854 36.2432C6.38237 35.9356 6.33318 34.9994 4.47294 31.4905C2.98809 28.6897 2.03906 25.7263 1.65214 22.6829C1.41049 20.7819 1.4582 19.3429 1.59143 18.3792C5.58097 21.1435 8.29025 24.2224 8.99408 25.06C8.79918 29.9996 8.47119 35.3892 8.24837 36.0305C7.92482 36.9207 9.3138 37.4229 9.63691 36.5334C10.0366 35.4335 10.3814 27.3564 10.4699 25.1221C11.2586 24.1961 15.1585 19.7334 18.9953 17.3784C20.2465 20.2571 19.9142 22.0974 19.5897 23.8916C18.9667 27.3373 17.5302 30.634 16.2814 33.8913C15.757 35.259 15.5227 35.8732 15.4648 36.1001C15.232 37.014 16.6534 37.3796 16.8961 36.4643C16.9405 36.2969 17.2904 35.3844 17.6608 34.4184C18.9434 31.0733 20.403 27.6922 21.0433 24.1535C21.3986 22.1884 21.8245 19.8329 20.0456 16.1463V16.1463ZM9.76047 23.6831C8.91033 22.7098 7.154 20.8299 4.68578 18.8484C8.01942 19.6205 11.5265 19.4337 14.8352 18.6291C12.5835 20.551 10.676 22.6368 9.76047 23.6831Z" fill="#E28539"/>
<path d="M16.0228 7.30042C16.4202 7.32435 16.7795 7.00375 16.8022 6.60641C16.978 3.53399 18.0594 1.05566 18.0703 1.03092C18.4538 0.16557 17.1045 -0.432429 16.7197 0.433957C16.6708 0.544147 15.5193 3.17078 15.3275 6.52229C15.3043 6.92878 15.6155 7.27723 16.0228 7.30042Z" fill="#E28539"/>
<path d="M9.34243 13.7499C9.75032 13.7499 10.081 13.4198 10.081 13.0126V11.4622C10.081 10.5177 8.60388 10.5158 8.60388 11.4622V13.0126C8.60388 13.4198 8.93453 13.7499 9.34243 13.7499Z" fill="#E28539"/>
<path d="M16.8683 9.10881C16.6963 8.84611 16.3583 8.72455 16.0573 8.8083C15.7475 8.89449 15.524 9.17838 15.5164 9.49995C15.5011 10.1563 16.3311 10.506 16.7878 10.0276C17.0239 9.78044 17.0584 9.3936 16.8683 9.10881V9.10881Z" fill="#E28539"/>
</svg>
