<svg width="21" height="25" viewBox="0 0 21 25" fill="none" xmlns="http://www.w3.org/2000/svg">
<path d="M18.9233 8.99861C18.1768 7.39547 17.134 5.83179 15.8241 4.35106C15.5497 4.04066 15.0759 4.02186 14.777 4.30087L11.3305 7.51764V0.781064C11.3305 0.217143 10.6505 -0.204198 10.1414 0.103812C7.34217 1.79699 3.94199 5.19331 2.20067 8.81985C1.21141 10.8801 0.709839 13.0153 0.709839 15.1662C0.70979 20.5886 5.11056 25.0001 10.5198 25.0001C17.3164 25.0001 23.1024 17.9731 18.9233 8.99861ZM8.25663 21.263C8.25663 19.3682 9.78213 17.9774 10.521 17.415C11.2566 18.0124 12.783 19.4685 12.783 21.263C12.783 22.5139 11.7677 23.5316 10.5198 23.5316C9.27182 23.5316 8.25663 22.5139 8.25663 21.263ZM13.9128 22.8083C15.0327 20.3475 13.1796 17.3733 10.94 15.8964C10.7054 15.7418 10.4035 15.7351 10.1622 15.8793C7.82874 17.275 6.00471 20.3426 7.12678 22.8083C4.21148 21.5025 2.17465 18.5685 2.17465 15.1663C2.17465 9.84217 5.64196 5.20537 9.86562 2.07385V9.20452C9.86562 9.84437 10.6294 10.1784 11.0972 9.74188L15.2166 5.89707C17.6382 8.83381 18.865 11.9489 18.865 15.1663C18.865 18.5685 16.8281 21.5025 13.9128 22.8083Z" fill="#E28539"/>
</svg>
